<svg xmlns="http://www.w3.org/2000/svg" xmlns:xlink="http://www.w3.org/1999/xlink" width="56.462" height="56.462" viewBox="0 0 56.462 56.462">
  <defs>
    <filter id="Oval" x="0" y="0" width="56.462" height="56.462" filterUnits="userSpaceOnUse">
      <feOffset dy="3" input="SourceAlpha"/>
      <feGaussianBlur stdDeviation="3" result="blur"/>
      <feFlood flood-opacity="0.161"/>
      <feComposite operator="in" in2="blur"/>
      <feComposite in="SourceGraphic"/>
    </filter>
  </defs>
  <g id="Linkedin" transform="translate(9 6)">
    <g transform="matrix(1, 0, 0, 1, -9, -6)" filter="url(#Oval)">
      <ellipse id="Oval-2" data-name="Oval" cx="19.231" cy="19.231" rx="19.231" ry="19.231" transform="translate(9 6)" fill="#007ab7"/>
    </g>
    <path id="Linkedin-2" data-name="Linkedin" d="M10.949,13.807V9.324c0-1.071-.016-2.447-1.485-2.447-1.49,0-1.713,1.168-1.713,2.367v4.563H4.892V4.584H7.628V5.848h.037a3.006,3.006,0,0,1,2.709-1.487c2.9,0,3.433,1.908,3.433,4.393v5.054Zm-7.862,0H.224V4.584H3.087v9.222h0Zm1.8-9.223h.005ZM0,1.663A1.661,1.661,0,1,1,1.661,3.326,1.664,1.664,0,0,1,0,1.663Z" transform="translate(12.328 11.835)" fill="#fff"/>
  </g>
</svg>
