<?xml version="1.0" encoding="utf-8"?>
<!-- Generator: Adobe Illustrator 22.1.0, SVG Export Plug-In . SVG Version: 6.00 Build 0)  -->
<svg version="1.1" id="social-icons" xmlns="http://www.w3.org/2000/svg" xmlns:xlink="http://www.w3.org/1999/xlink" x="0px"
	 y="0px" width="175px" height="35px" viewBox="0 0 175 35" style="enable-background:new 0 0 175 35;" xml:space="preserve">
<style type="text/css">
	.st0{fill:#B3111A;}
	.st1{fill:#FFFFFF;}
	.st2{fill:#007AB7;}
	.st3{fill:#F52929;}
	.st4{fill:#3D5A96;}
	.st5{fill:#2F75EC;}
</style>
<g id="yelp">
	<circle class="st0" cx="157.5" cy="17.5" r="17.5"/>
	<path class="st1" d="M151.7,21.1c1-0.2,1.9-0.5,2.8-0.9l1.1-0.4c0.3-0.1,0.5-0.4,0.5-0.7c0-0.3-0.1-0.6-0.4-0.8l-0.8-0.3
		c-1-0.5-2-0.9-3-1.2c-0.2,0-0.4,0.1-0.5,0.3c-0.3,0.9-0.4,1.9-0.3,2.8c0,0.3,0.1,0.5,0.2,0.7C151.3,21,151.5,21.1,151.7,21.1z
		 M157.5,22.9c0,0,0-1.2,0-1.2c0-0.3-0.2-0.6-0.5-0.7c-0.3-0.1-0.6,0-0.9,0.2l-0.6,0.7c-0.8,0.8-1.4,1.7-2.1,2.6c0,0.1,0,0.2,0,0.3
		c0,0.1,0.1,0.3,0.2,0.4c0.9,0.7,2.1,1.2,3.3,1.2c0.2,0,0.4-0.2,0.5-0.4C157.6,24.9,157.6,23.9,157.5,22.9L157.5,22.9z M157.1,17.1
		c0.1,0,0.6-0.2,0.5-1.2c-0.1-1.2-0.4-6.4-0.4-6.7c-0.1-0.2-0.2-0.4-0.5-0.4c-1.5,0-2.9,0.4-4.1,1.2c-0.2,0.2-0.2,0.4-0.2,0.6
		c0.1,0.2,3.6,5.8,3.6,5.8C156.5,17.3,156.9,17.1,157.1,17.1L157.1,17.1z M158.9,17.4c-0.2,0.2-0.2,0.6,0,0.8
		c0.2,0.3,0.5,0.4,0.8,0.4l0,0c0.3-0.1,0.6-0.2,0.9-0.2c1.1-0.2,2.1-0.5,3.1-0.8c0.2-0.1,0.3-0.4,0.3-0.6c0,0,0,0,0,0
		c-0.3-1.2-1-2.2-1.9-2.9c-0.2-0.1-0.4-0.1-0.6,0c-0.6,0.7-1.2,1.5-1.8,2.4C159.6,16.4,158.9,17.4,158.9,17.4L158.9,17.4z
		 M161.8,24.9c1-0.7,1.7-1.7,2.2-2.8c0-0.2,0-0.4-0.2-0.6c-0.9-0.4-1.8-0.7-2.8-1c0,0-1.1-0.4-1.1-0.4c-0.3-0.1-0.6,0-0.8,0.3
		c-0.2,0.3-0.2,0.6-0.1,0.9l0.5,0.8c0.5,1,1.1,1.9,1.8,2.8C161.4,25,161.6,25,161.8,24.9L161.8,24.9z"/>
</g>
<g id="linkedin">
	<circle class="st2" cx="122.5" cy="17.5" r="17.5"/>
	<path class="st1" d="M128.4,23v-4.5c0-2.2-0.5-3.9-3.1-3.9c-1,0-1.9,0.5-2.4,1.3h0v-1.1h-2.4V23h2.6v-4.1c0-1.1,0.2-2.1,1.5-2.1
		c1.3,0,1.3,1.2,1.3,2.2v4L128.4,23z M118.8,23L118.8,23v-8.3h-2.6V23L118.8,23L118.8,23z M117.5,13.6c0.8,0,1.5-0.7,1.5-1.5
		c0-0.8-0.7-1.5-1.5-1.5s-1.5,0.7-1.5,1.5C116,12.9,116.7,13.6,117.5,13.6z"/>
</g>
<g id="youtube">
	<circle class="st3" cx="87.5" cy="17.5" r="17.5"/>
	<path class="st1" d="M93.1,23.6L93.1,23.6c0.6,0,1.2-0.3,1.6-0.7c0.3-0.5,0.6-1.1,0.6-1.8c0,0,0.2-1.5,0.2-2.9v-1.3
		c0-1.4-0.2-2.9-0.2-2.9c-0.1-0.6-0.3-1.2-0.6-1.8c-0.4-0.5-0.9-0.7-1.5-0.7l-0.1,0c-2.2-0.2-5.6-0.2-5.6-0.2s-3.4,0-5.6,0.2h0
		c-0.6,0-1.2,0.3-1.6,0.7c-0.4,0.5-0.6,1.1-0.6,1.8c0,0-0.2,1.5-0.2,2.9v1.3c0,1,0.1,1.9,0.2,2.9c0.1,0.6,0.3,1.2,0.6,1.8
		c0.4,0.4,0.9,0.7,1.5,0.7c0.1,0,0.2,0,0.2,0c1.3,0.1,5.4,0.2,5.5,0.2l0,0C87.5,23.8,90.9,23.8,93.1,23.6z"/>
	<polygon class="st3" points="90.8,17.8 85.5,20.8 85.5,14.6 	"/>
</g>
<g id="facebook">
	<circle class="st4" cx="52.5" cy="17.5" r="17.5"/>
	<path id="Facebook-2_1_" class="st1" d="M53.7,17.9h2.1l0.3-2.6h-2.4V14c0-0.7,0.1-1,1.1-1H56v-2.6h-2.1c-2.5,0-3.4,1.3-3.4,3.4
		v1.6h-1.6v2.6h1.6v6.8h3.2V17.9z"/>
</g>
<g id="email">
	<circle class="st5" cx="17.5" cy="17.5" r="17.5"/>
	<path class="st1" d="M14.9,17.5L9.7,13v9.4L14.9,17.5z M10.5,12.5l7.4,6.4l7.4-6.4H10.5z M20.1,18.1l-2,1.7
		c-0.1,0.1-0.2,0.1-0.3,0.1c-0.1,0-0.2,0-0.3-0.1l-2-1.7l-5.2,5h14.9L20.1,18.1z M20.8,17.5l5.2,5V13L20.8,17.5z"/>
</g>
</svg>
