<?xml version="1.0" encoding="utf-8"?>
<!-- Generator: Adobe Illustrator 22.1.0, SVG Export Plug-In . SVG Version: 6.00 Build 0)  -->
<svg version="1.1" id="Layer_1" xmlns="http://www.w3.org/2000/svg" xmlns:xlink="http://www.w3.org/1999/xlink" x="0px" y="0px"
	 width="245px" height="35px" viewBox="0 0 245 35" style="enable-background:new 0 0 245 35;" xml:space="preserve">
<style type="text/css">
	.st0{fill:#007AB7;}
	.st1{fill:#FFFFFF;}
	.st2{fill:url(#Oval-2_1_);}
	.st3{fill:#F52929;}
	.st4{fill:#2AA3EF;}
	.st5{fill:#3D5A96;}
	.st6{fill:#2F75EC;}
	.st7{fill:#FFFFFF;stroke:#2F75EC;stroke-width:0.8952;stroke-linecap:round;stroke-linejoin:round;}
	.st8{fill:none;stroke:#2F75EC;stroke-width:0.8952;stroke-linecap:round;stroke-linejoin:round;}
	.st9{fill:#B3111A;}
</style>
<g id="Linkedin_1_" transform="translate(9 6)">
	<g transform="matrix(1, 0, 0, 1, -9, -6)">
		<ellipse id="Oval-2_37_" class="st0" cx="192.2" cy="17.2" rx="17.2" ry="17.2"/>
	</g>
	<path id="Linkedin-2_1_" class="st1" d="M186.8,17v-4c0-1,0-2.2-1.3-2.2c-1.3,0-1.5,1-1.5,2.1V17h-2.6V8.7h2.4v1.1h0
		c0.5-0.9,1.4-1.4,2.4-1.3c2.6,0,3.1,1.7,3.1,3.9V17L186.8,17z M179.8,17h-2.6V8.7h2.6V17L179.8,17L179.8,17z M181.4,8.7L181.4,8.7
		L181.4,8.7z M177,6.1c0-0.8,0.7-1.5,1.5-1.5c0.8,0,1.5,0.7,1.5,1.5c0,0.8-0.7,1.5-1.5,1.5C177.7,7.6,177,6.9,177,6.1z"/>
</g>
<g id="Instagram_1_" transform="translate(12 8)">
	<g transform="matrix(1, 0, 0, 1, -12, -8)">
		
			<linearGradient id="Oval-2_1_" gradientUnits="userSpaceOnUse" x1="2.3441" y1="737.7218" x2="2.3414" y2="736.8265" gradientTransform="matrix(39.048 0 0 -39.048 66 28806.5605)">
			<stop  offset="0" style="stop-color:#7024C4"/>
			<stop  offset="0.415" style="stop-color:#C21975"/>
			<stop  offset="0.702" style="stop-color:#C74C4D"/>
			<stop  offset="1" style="stop-color:#E09B3D"/>
		</linearGradient>
		<circle id="Oval-2_35_" class="st2" cx="157.5" cy="17.5" r="17.5"/>
	</g>
	<path id="Instagram-2_1_" class="st1" d="M148.6,17.1h-6.2c-2.5,0-4.5-2-4.5-4.5V6.4c0-2.5,2-4.5,4.5-4.5h6.2c2.5,0,4.5,2,4.5,4.5
		v6.2C153.1,15.1,151.1,17.1,148.6,17.1z M142.4,3.4c-1.7,0-3,1.3-3,3v6.2c0,1.7,1.3,3,3,3h6.2c1.7,0,3-1.3,3-3V6.4c0-1.7-1.3-3-3-3
		L142.4,3.4z M145.5,13.4c-2.2,0-3.9-1.8-3.9-3.9s1.8-3.9,3.9-3.9c2.2,0,3.9,1.8,3.9,3.9C149.4,11.7,147.7,13.4,145.5,13.4
		L145.5,13.4z M145.5,7.1c-1.3,0-2.4,1.1-2.4,2.4s1.1,2.4,2.4,2.4c1.3,0,2.4-1.1,2.4-2.4C147.9,8.1,146.8,7.1,145.5,7.1L145.5,7.1z
		 M149.4,6.5c-0.5,0-0.9-0.4-0.9-0.9s0.4-0.9,0.9-0.9c0.5,0,0.9,0.4,0.9,0.9C150.4,6.1,149.9,6.5,149.4,6.5z"/>
</g>
<g id="Youtube_1_" transform="translate(9 6)">
	<g transform="matrix(1, 0, 0, 1, -9, -6)">
		<circle id="Oval-2_33_" class="st3" cx="122.5" cy="17.5" r="17.5"/>
	</g>
	<path id="Youtube-2_1_" class="st1" d="M113.5,17.8L113.5,17.8c0,0-4.2,0-5.5-0.2c-0.1,0-0.2,0-0.2,0c-0.6,0-1.1-0.3-1.5-0.7
		c-0.3-0.5-0.6-1.1-0.6-1.8c-0.1-1-0.2-1.9-0.2-2.9v-1.3c0-1.4,0.2-2.9,0.2-2.9c0.1-0.6,0.3-1.2,0.6-1.8c0.4-0.4,1-0.7,1.6-0.7h0
		c2.2-0.2,5.6-0.2,5.6-0.2s3.4,0,5.6,0.2l0.1,0c0.6,0,1.2,0.3,1.5,0.7c0.3,0.5,0.6,1.1,0.6,1.8c0,0,0.2,1.5,0.2,2.9v1.3
		c0,1.4-0.2,2.9-0.2,2.9c-0.1,0.6-0.3,1.2-0.6,1.8c-0.4,0.4-1,0.7-1.6,0.7h0C116.9,17.8,113.5,17.8,113.5,17.8z M111.5,8.6v6.2
		l5.3-3L111.5,8.6z"/>
</g>
<g id="Twitter_1_" transform="translate(9 6)">
	<g transform="matrix(1, 0, 0, 1, -9, -6)">
		<circle id="Oval-2_31_" class="st4" cx="87.5" cy="17.5" r="17.5"/>
	</g>
	<path id="Twitter-2_1_" class="st1" d="M85.6,7c-0.5,0.2-1.1,0.4-1.7,0.5c0.6-0.4,1.1-0.9,1.3-1.6c-0.6,0.3-1.2,0.6-1.9,0.7
		c-1.1-1.2-3-1.2-4.2-0.1c-0.6,0.6-0.9,1.3-0.9,2.1c0,0.2,0,0.5,0.1,0.7C76,9.1,73.8,8,72.3,6.2c-0.8,1.3-0.4,3.1,0.9,3.9
		c-0.5,0-0.9-0.1-1.3-0.4v0c0,1.4,1,2.6,2.4,2.9c-0.3,0.1-0.5,0.1-0.8,0.1c-0.2,0-0.4,0-0.6-0.1c0.4,1.2,1.5,2,2.7,2
		c-1,0.8-2.3,1.3-3.7,1.3c-0.2,0-0.5,0-0.7,0c1.3,0.9,2.9,1.3,4.5,1.3c4.6,0,8.3-3.7,8.4-8.3c0,0,0-0.1,0-0.1c0-0.1,0-0.3,0-0.4
		C84.8,8.1,85.3,7.6,85.6,7L85.6,7z"/>
</g>
<g id="Facebook_1_" transform="translate(9 6)">
	<g transform="matrix(1, 0, 0, 1, -9, -6)">
		<circle id="Oval-2_36_" class="st5" cx="52.5" cy="17.5" r="17.5"/>
	</g>
	<path id="Facebook-2_1_" class="st1" d="M44.7,18.6h-3.2v-6.8h-1.6V9.3h1.6V7.7c0-2.1,0.9-3.4,3.4-3.4H47v2.6h-1.3
		c-1,0-1.1,0.4-1.1,1v1.3h2.4l-0.3,2.6h-2.1V18.6z"/>
</g>
<g id="E-mail_1_" transform="translate(9 6)">
	<g transform="matrix(1, 0, 0, 1, -9, -6)">
		<circle id="Oval-2_34_" class="st6" cx="17.5" cy="17.5" r="17.5"/>
	</g>
	<g id="Group_96_2_" transform="translate(10.369 13.448)">
		<rect id="Rectangle_82_2_" x="-10.1" y="-7.4" class="st7" width="17.2" height="11.5"/>
		<path id="Path_466_2_" class="st8" d="M-10.1-7.4L-1.5,0l8.6-7.4"/>
		<line id="Line_111_2_" class="st8" x1="-10.1" y1="4" x2="-3.8" y2="-1.9"/>
		<line id="Line_112_2_" class="st8" x1="7" y1="4" x2="0.8" y2="-1.9"/>
	</g>
</g>
<g>
	<g id="yelp_1_" transform="translate(-271 -586)">
		<g transform="matrix(1, 0, 0, 1, 271, 586)">
			<circle id="Ellipse_43-2_12_" class="st9" cx="227.5" cy="17.5" r="17.5"/>
		</g>
		<path id="Path_623_1_" class="st1" d="M492.2,606.7c-0.1-0.2-0.2-0.5-0.2-0.7c-0.1-1,0-1.9,0.3-2.8c0.1-0.2,0.3-0.3,0.5-0.3
			c1,0.3,2.1,0.7,3,1.2l0.8,0.3c0.3,0.1,0.5,0.4,0.4,0.8c0,0.3-0.2,0.6-0.5,0.7l-1.1,0.4c-0.9,0.4-1.8,0.7-2.8,0.9
			C492.5,607.1,492.3,607,492.2,606.7z M498.5,608.9c0.1,1,0,2-0.1,3c-0.1,0.2-0.3,0.4-0.5,0.4c-1.2-0.1-2.3-0.5-3.3-1.2
			c-0.1-0.1-0.1-0.2-0.2-0.4c0-0.1,0-0.2,0-0.3c0.6-0.9,1.3-1.8,2.1-2.6l0.6-0.7c0.2-0.2,0.6-0.3,0.9-0.2c0.3,0.1,0.5,0.4,0.5,0.7
			C498.6,607.6,498.5,608.9,498.5,608.9L498.5,608.9z M498.1,603.1c-0.1,0-0.6,0.2-1.1-0.7c0,0-3.5-5.7-3.6-5.8c0-0.2,0-0.4,0.2-0.6
			c1.2-0.8,2.7-1.2,4.1-1.2c0.2,0,0.4,0.2,0.5,0.4c0,0.2,0.4,5.5,0.4,6.7C498.6,602.9,498.2,603.1,498.1,603.1L498.1,603.1z
			 M499.9,603.4c0,0,0.7-1,0.7-1c0.5-0.8,1.1-1.6,1.8-2.4c0.2-0.1,0.4-0.1,0.6,0c0.9,0.8,1.6,1.8,1.9,2.9c0,0,0,0,0,0
			c0,0.2-0.1,0.4-0.3,0.6c-1,0.4-2.1,0.6-3.1,0.8c-0.3,0.1-0.6,0.1-0.9,0.2l0,0c-0.3,0.1-0.6-0.1-0.8-0.4
			C499.7,604,499.7,603.6,499.9,603.4L499.9,603.4z M502.8,610.9c-0.2,0.1-0.4,0.1-0.6-0.1c-0.7-0.9-1.2-1.8-1.8-2.8l-0.5-0.8
			c-0.2-0.3-0.1-0.6,0.1-0.9c0.2-0.3,0.5-0.4,0.8-0.3c0,0,1.1,0.4,1.1,0.4c0.9,0.3,1.9,0.6,2.8,1c0.2,0.1,0.2,0.4,0.2,0.6
			C504.6,609.2,503.8,610.2,502.8,610.9L502.8,610.9z"/>
	</g>
</g>
</svg>
