<svg xmlns="http://www.w3.org/2000/svg" xmlns:xlink="http://www.w3.org/1999/xlink" width="57.096" height="57.096" viewBox="0 0 57.096 57.096">
  <defs>
    <filter id="Ellipse_43" x="0" y="0" width="57.096" height="57.096" filterUnits="userSpaceOnUse">
      <feOffset dy="3" input="SourceAlpha"/>
      <feGaussianBlur stdDeviation="3" result="blur"/>
      <feFlood flood-opacity="0.161"/>
      <feComposite operator="in" in2="blur"/>
      <feComposite in="SourceGraphic"/>
    </filter>
  </defs>
  <g id="yelp" transform="translate(-271 -586)">
    <g transform="matrix(1, 0, 0, 1, 271, 586)" filter="url(#Ellipse_43)">
      <circle id="Ellipse_43-2" data-name="Ellipse 43" cx="19.548" cy="19.548" r="19.548" transform="translate(9 6)" fill="#b3111a"/>
    </g>
    <path id="Path_623" data-name="Path 623" d="M290.267,613.4a2.58,2.58,0,0,1-.189-.817,7.163,7.163,0,0,1,.333-3.175.664.664,0,0,1,.6-.348,21.235,21.235,0,0,1,3.376,1.354l.9.375a.847.847,0,0,1,.5.861.789.789,0,0,1-.553.764s-1.28.419-1.28.419a18.49,18.49,0,0,1-3.115.962A.671.671,0,0,1,290.267,613.4Zm7.1,2.365a21.255,21.255,0,0,1-.065,3.333.675.675,0,0,1-.542.432,6.638,6.638,0,0,1-3.669-1.379.76.76,0,0,1-.175-.4.639.639,0,0,1,.034-.283,22.073,22.073,0,0,1,2.3-2.867l.63-.764a.816.816,0,0,1,.954-.222.792.792,0,0,1,.536.775C297.379,614.407,297.372,615.769,297.372,615.769Zm-.518-6.445c-.155.049-.63.2-1.213-.767,0,0-3.94-6.339-4.032-6.534a.723.723,0,0,1,.2-.67,8.975,8.975,0,0,1,4.6-1.323.7.7,0,0,1,.527.494c.046.272.434,6.154.49,7.475C297.48,609.125,297.007,609.274,296.854,609.324Zm2.006.316c.01-.011.8-1.109.8-1.109a20.457,20.457,0,0,1,1.963-2.651.659.659,0,0,1,.69-.026,6.9,6.9,0,0,1,2.177,3.291.215.215,0,0,1,0,.028.688.688,0,0,1-.28.64,22.675,22.675,0,0,1-3.511.936,9.724,9.724,0,0,0-.971.261l.017-.028a.815.815,0,0,1-.892-.4A.8.8,0,0,1,298.86,609.641Zm3.318,8.388a.645.645,0,0,1-.681-.075,24.49,24.49,0,0,1-1.955-3.125l-.507-.842a.862.862,0,0,1,.086-1,.771.771,0,0,1,.886-.287c.017.009,1.274.434,1.274.434a20.782,20.782,0,0,1,3.081,1.092.7.7,0,0,1,.231.663A6.794,6.794,0,0,1,302.178,618.029Z" transform="translate(2.226 1.774)" fill="#fff"/>
  </g>
</svg>
