<svg id="tahoe-logo" xmlns="http://www.w3.org/2000/svg" xmlns:xlink="http://www.w3.org/1999/xlink" width="188.46" height="50" viewBox="0 0 188.46 50"><defs><linearGradient id="linear-gradient" x1="25.74" y1="48.04" x2="25.74" y2="38.25" gradientUnits="userSpaceOnUse"><stop offset="0" stop-color="#2894e2"/><stop offset="0.05" stop-color="#2a98e4"/><stop offset="0.4" stop-color="#36b0f3"/><stop offset="0.72" stop-color="#3dbefc"/><stop offset="1" stop-color="#40c3ff"/></linearGradient><linearGradient id="linear-gradient-2" x1="27.82" y1="27.27" x2="40.91" y2="19.71" gradientUnits="userSpaceOnUse"><stop offset="0" stop-color="#005054"/><stop offset="0.61" stop-color="#38806a"/><stop offset="1" stop-color="#549c63"/></linearGradient><linearGradient id="linear-gradient-3" x1="3.84" y1="34.31" x2="27.73" y2="20.52" gradientUnits="userSpaceOnUse"><stop offset="0" stop-color="#005054"/><stop offset="0.64" stop-color="#38806a"/><stop offset="1" stop-color="#549c63"/></linearGradient><linearGradient id="linear-gradient-4" x1="29.44" y1="12.3" x2="29.44" y2="5.3" gradientUnits="userSpaceOnUse"><stop offset="0" stop-color="#e37d00"/><stop offset="0.73" stop-color="#fb3"/></linearGradient></defs><title>Tahoe Adventure Club</title><path d="M69.79,46.12l-.49-1.85h-3.2l-.5,1.85H62.69l3.21-9.89h3.55l3.25,9.89Zm-1-4-.42-1.62q-.15-.54-.36-1.39t-.28-1.23q-.06.34-.24,1.13t-.79,3.11Z" fill="#fff"/><path d="M82.68,41a5.09,5.09,0,0,1-1.36,3.8,5.21,5.21,0,0,1-3.82,1.33H74.32V36.27h3.41a5.15,5.15,0,0,1,3.66,1.21A4.58,4.58,0,0,1,82.68,41Zm-2.76.09a3.13,3.13,0,0,0-.54-2,2,2,0,0,0-1.63-.65H77v5.52h.59a2.15,2.15,0,0,0,1.78-.7A3.4,3.4,0,0,0,79.92,41.08Z" fill="#fff"/><path d="M89.71,36.27h3l-3.23,9.85H86.32l-3.21-9.85h3l1.34,5a15.2,15.2,0,0,1,.46,2.32q0-.47.19-1.18t.25-1.11Z" fill="#fff"/><path d="M100.08,46.12H94.23V36.27h5.85v2.14H96.89V40h3v2.14h-3V44h3.19Z" fill="#fff"/><path d="M111.6,46.12h-3.49l-3.6-6.94h-.06q.13,1.64.13,2.5v4.44h-2.36V36.27h3.48l3.58,6.85h0q-.1-1.49-.09-2.39V36.27h2.37Z" fill="#fff"/><path d="M118.21,46.12h-2.66V38.45h-2.41V36.27h7.47v2.18h-2.4Z" fill="#fff"/><path d="M130.53,36.27V42.2a4,4,0,0,1-1.1,3,5.19,5.19,0,0,1-6.25,0,3.9,3.9,0,0,1-1.08-3v-6h2.67v5.78a2.37,2.37,0,0,0,.39,1.52,1.68,1.68,0,0,0,2.33,0,2.5,2.5,0,0,0,.37-1.53V36.27Z" fill="#fff"/><path d="M135,42.54v3.58h-2.66V36.27h3.23q4,0,4,2.91a2.91,2.91,0,0,1-1.67,2.65l2.87,4.29h-3l-2.09-3.58Zm0-2h.5q1.39,0,1.39-1.23,0-1-1.37-1H135Z" fill="#fff"/><path d="M147.65,46.12H141.8V36.27h5.85v2.14h-3.19V40h3v2.14h-3V44h3.19Z" fill="#fff"/><path d="M157.62,38.31a1.7,1.7,0,0,0-1.48.78,3.75,3.75,0,0,0-.53,2.15q0,2.84,2.16,2.84A4.44,4.44,0,0,0,159,43.9a12.71,12.71,0,0,0,1.23-.44v2.25a6.82,6.82,0,0,1-2.79.55A4.41,4.41,0,0,1,154.06,45a5.33,5.33,0,0,1-1.19-3.74,6,6,0,0,1,.58-2.69,4.12,4.12,0,0,1,1.66-1.78,5,5,0,0,1,2.54-.62,7,7,0,0,1,3.05.69l-.82,2.1a9.14,9.14,0,0,0-1.09-.43A3.83,3.83,0,0,0,157.62,38.31Z" fill="#fff"/><path d="M162.47,46.12V36.27h2.66V44h3.79v2.15Z" fill="#fff"/><path d="M178.6,36.27V42.2a4,4,0,0,1-1.1,3,5.19,5.19,0,0,1-6.25,0,3.9,3.9,0,0,1-1.08-3v-6h2.67v5.78a2.37,2.37,0,0,0,.39,1.52,1.68,1.68,0,0,0,2.33,0,2.5,2.5,0,0,0,.37-1.53V36.27Z" fill="#fff"/><path d="M180.88,36.27h3.44a5.84,5.84,0,0,1,3,.6,2,2,0,0,1,1,1.86,2.35,2.35,0,0,1-.42,1.42,1.9,1.9,0,0,1-1.12.75V41a2.28,2.28,0,0,1,1.33.81,2.44,2.44,0,0,1,.41,1.47,2.52,2.52,0,0,1-1,2.11,4.41,4.41,0,0,1-2.75.77h-3.83Zm2.66,3.78h.8a1.45,1.45,0,0,0,.89-.24.82.82,0,0,0,.31-.7q0-.83-1.25-.83h-.75Zm0,1.95v2.07h.94q1.25,0,1.25-1.05a.91.91,0,0,0-.33-.75,1.54,1.54,0,0,0-1-.26Z" fill="#fff"/><path d="M85.51,11.7H80V9.21H78v14.4H80.2v5.25H66.76V23.61H69V9.21H67v2.5h-5.5V4H85.51Z" fill="#fff"/><path d="M108.17,23.61h1.28v5.25H96.9V23.61h1.92L98.31,21H94l-.51,2.56h1.92v5.25H84.42V23.61H85.7L91.11,4h11.65Zm-13.5-6h2.94L96.3,11.29H96Z" fill="#fff"/><path d="M137.67,9.21h-1.6v14.4h1.6v5.25h-12.1V23.61h1.54V18.33h-4.48v5.28h1.54v5.25h-12.1V23.61h1.6V9.21h-1.6V4h12.1V9.21h-1.54v4.86h4.48V9.21h-1.54V4h12.1Z" fill="#fff"/><path d="M142.9,26.23q-3.18-3.07-3.18-9.82t3.18-9.82q3.18-3.07,9-3.07t9,3.07q3.18,3.07,3.18,9.82T161,26.23q-3.18,3.07-9,3.07T142.9,26.23ZM153.58,23a2.54,2.54,0,0,0,.54-1.79V11.58a2.54,2.54,0,0,0-.54-1.79,2.6,2.6,0,0,0-3.26,0,2.53,2.53,0,0,0-.54,1.79v9.66a2.52,2.52,0,0,0,.54,1.81,2.18,2.18,0,0,0,1.63.56A2.14,2.14,0,0,0,153.58,23Z" fill="#fff"/><path d="M166.38,28.86V23.61H168V9.21h-1.6V4H188v9.66h-7.17V9.21h-3.87v5.06h2.82v3.65h-2.82v5.7h3.87V18.55H188v10.3Z" fill="#fff"/><g id="logo-icon"><circle id="circle" cx="25" cy="25" r="25" fill="#fff"/><path id="water" d="M23,26A43.84,43.84,0,0,0,5.68,33.25,21,21,0,0,0,45.8,27.85,50.78,50.78,0,0,0,23,26Z" fill="url(#linear-gradient)"/><polygon id="mountain" points="45.8 27.86 26.81 27.86 29.44 23.3 36.31 11.4 45.8 27.86" fill="url(#linear-gradient-2)"/><polygon id="mountain-2" data-name="mountain" points="35.19 33.24 5.68 33.24 20.43 7.7 35.19 33.24" fill="url(#linear-gradient-3)"/><circle id="sun" cx="29.44" cy="8.8" r="3.5" fill="url(#linear-gradient-4)"/></g></svg>