<svg id="tahoe-logo" xmlns="http://www.w3.org/2000/svg" viewBox="0 0 256 195.13" width="256" height="195.13"><title>Tahoe Adventure Club</title><path id="club" d="M240.38,186.71c-.23-.38-.46-.58-.68-.58s-.45.16-.67.49l-.72,1.06a6.91,6.91,0,0,1-.9,1.06,1.6,1.6,0,0,1-1.13.49,1.15,1.15,0,0,1-1-.58,5.35,5.35,0,0,1-.63-1.44q-.25-.86-.45-1.87a12,12,0,0,0-.52-1.87,4.45,4.45,0,0,0-.85-1.44,1.74,1.74,0,0,0-1.35-.58q-.83,0-2,1.55a5.64,5.64,0,0,0-.94,2q.65.72,1.35,1.57a3.06,3.06,0,0,1,.68,2.07,4.34,4.34,0,0,1-.34,1.85,2.62,2.62,0,0,1-.9,1,2,2,0,0,1-1.73,0q-1.66-.57-1.66-4.14a23.64,23.64,0,0,1,1.69-9,20,20,0,0,0,7.45-1.69q3.35-1.69,3.35-4.79a3.83,3.83,0,0,0-1.31-2.93,5.42,5.42,0,0,0-3.8-1.21,6.46,6.46,0,0,0-2.52.61q-3.75,1.73-6.7,7.31a11.82,11.82,0,0,1-1.69-.49,4.33,4.33,0,0,0-1.48-.31c-.31,0-.47.16-.47.54q0,1.08,2.66,2.23a26.39,26.39,0,0,0-2.45,9.53l-1.15,1.18q-.79.81-1.58,1.49a2.27,2.27,0,0,1-1.33.68c-.26,0-.4-.2-.4-.61a26.21,26.21,0,0,1,.76-5,29.32,29.32,0,0,0,.79-5.47,5.62,5.62,0,0,0-.23-1.87q-.23-.61-1.17-.61-3.75,0-3.74,2.41V180c0,.29,0,.58,0,.86l0,.88c0,.3,0,.54.05.74a19.71,19.71,0,0,1-1.37,5.29q-1.3,3.1-3.06,3.1t-1.62-1.29a14.35,14.35,0,0,1,.58-3.73q.58-2.11.92-3.49a9.22,9.22,0,0,0,.16-3.15q-.22-2.16-1.87-2.16a5.15,5.15,0,0,0-3.21.87l-1,8.86a13.82,13.82,0,0,0-.88,1.94c0,.12-.06.26-.1.39a6.07,6.07,0,0,1-3.81,1.37,2.66,2.66,0,0,1-2-.94,4.25,4.25,0,0,1-.86-3v-1.44q1.69-2.2,3.46-4.07t3.22-3.58a23.25,23.25,0,0,0,2.39-3.31,6.28,6.28,0,0,0,.94-3.19,3.22,3.22,0,0,0-.88-2.43,3.37,3.37,0,0,0-2.43-.85,8.28,8.28,0,0,0-6.34,3.13,16.43,16.43,0,0,0-2.34,3.46,27.85,27.85,0,0,0-2.77,8.64,29.51,29.51,0,0,0-.34,3.83q-.62.71-1.44,1.55a14.36,14.36,0,0,1-1.82,1.57,3.37,3.37,0,0,1-2.07.7,4,4,0,0,1-1.87-.45,2.17,2.17,0,0,1-1.19-1.94,12.82,12.82,0,0,1,.79-4.71,5.28,5.28,0,0,1,1-1.66,1.63,1.63,0,0,1,1.24-.63,1.79,1.79,0,0,1,1.19.52,1.78,1.78,0,0,0,1.26.5q.54,0,1.06-.76a3.49,3.49,0,0,0,.52-2q0-2.19-2.77-2.2a7.5,7.5,0,0,0-3.35.88,10.29,10.29,0,0,0-3.15,2.47,12.54,12.54,0,0,0-2.23,3.76,13.32,13.32,0,0,0-.85,4.86,4.92,4.92,0,0,0,1.8,4.1,6.57,6.57,0,0,0,4.19,1.42,9.6,9.6,0,0,0,7.06-2.83,9.27,9.27,0,0,0,1.14-1.43c0,.1.07.2.12.3q1.87,3.89,7,3.85A6.49,6.49,0,0,0,200,194a9.43,9.43,0,0,0,1.79-1.16,3.5,3.5,0,0,0,.82.84,7.53,7.53,0,0,0,4.38,1.08,4.64,4.64,0,0,0,2.88-1,7.07,7.07,0,0,0,2-2.29,5.31,5.31,0,0,0,.7,2.27,2.08,2.08,0,0,0,1.93.9.4.4,0,0,0,.18,0q1.11,0,5.29-2.45a10.32,10.32,0,0,0,1.17-1.3,5.29,5.29,0,0,0,1.89,2.52,7.74,7.74,0,0,0,4.66,1.4,7.4,7.4,0,0,0,4.19-1,5.54,5.54,0,0,0,2.09-2.52,4.61,4.61,0,0,0,2.74.74,3.39,3.39,0,0,0,2.9-1.57,5,5,0,0,0,1.13-2.74A2.13,2.13,0,0,0,240.38,186.71Zm-9.09-14.11a3.88,3.88,0,0,1,2.29-1.33q.88,0,.92,1.26a2.4,2.4,0,0,1-.54,1.37q-1.44,1.73-5.36,2.41A15,15,0,0,1,231.29,172.6Zm-34,1.26q1.53-2.59,2.79-2.59.58,0,.58.81a3.11,3.11,0,0,1-.43,1.57,13.07,13.07,0,0,1-1.19,1.69l-1.78,2.2a37.53,37.53,0,0,0-2.25,3.13A20.59,20.59,0,0,1,197.33,173.86Z" fill="#fff"/><path id="adventure" d="M168.49,186.17q-.32,0-.94.7A15.1,15.1,0,0,1,166,188.4a8.33,8.33,0,0,1-5.44,2.23,5.41,5.41,0,0,1-2.38-.58,2,2,0,0,1-1.08-1.84v-.9q1.44-.65,2.93-1.17a18.19,18.19,0,0,0,2.72-1.19,6.34,6.34,0,0,0,2-1.66,4,4,0,0,0,.77-2.54,3.26,3.26,0,0,0-1.06-2.52,4.32,4.32,0,0,0-3-1,8,8,0,0,0-3.69.88,9.62,9.62,0,0,0-3,2.47,12.55,12.55,0,0,0-2.11,3.76,12.35,12.35,0,0,0-.78,4c-.51.51-1,1-1.52,1.43a2.27,2.27,0,0,1-1.33.68q-.4,0-.38-.63a13.12,13.12,0,0,1,.52-2.46q.5-1.84.88-3.13t.7-2.7q-1-3.06-2.09-3.06a1.75,1.75,0,0,0-.76.22l-.94.47a5.52,5.52,0,0,1-2.41.68,3.76,3.76,0,0,1-1.26-.18,6.35,6.35,0,0,0-1-2.27,2.88,2.88,0,0,0-2.34-1.4q-2.59,0-2.59,2.41a4.29,4.29,0,0,0,1.66,2.74,15.55,15.55,0,0,0-1.49,4.34c-.09.53-.16,1.16-.22,1.84l-.95,1q-.79.81-1.58,1.49a2.27,2.27,0,0,1-1.33.68c-.26,0-.4-.2-.4-.61a26.21,26.21,0,0,1,.76-5,29.32,29.32,0,0,0,.79-5.47,5.62,5.62,0,0,0-.23-1.87q-.23-.61-1.17-.61-3.75,0-3.74,2.41V180c0,.29,0,.58,0,.86l0,.88c0,.3,0,.54.05.74a19.71,19.71,0,0,1-1.37,5.29q-1.3,3.1-3.06,3.1t-1.62-1.29a14.35,14.35,0,0,1,.58-3.73q.58-2.11.92-3.49a9.22,9.22,0,0,0,.16-3.15q-.22-2.16-1.87-2.16a5.15,5.15,0,0,0-3.21.87l-1,8.54a4.61,4.61,0,0,0-.69.75,9.79,9.79,0,0,1-2.59,2.18,6.17,6.17,0,0,1-2.48,1.13q-.83,0-.83-2.88a44.33,44.33,0,0,1,.76-7.27l3.6.18q.4,0,.7-.94a5.64,5.64,0,0,0,.31-1.62,1,1,0,0,0-.05-.38q-.05-.13-.72-.13t-3.19-.07l1.48-2.59q-.18-.58-.32-1.08-.58-1.8-2-1.84-1.8,0-3.53,5.54-.58,0-1.08,0h-.86a3.68,3.68,0,0,0-.77,1.28,5.19,5.19,0,0,0-.16,1.42c0,.24.14.36.43.36h1.62a30.73,30.73,0,0,0-.86,6.23c0,.2,0,.38,0,.57l-1,1q-.79.81-1.58,1.49a2.27,2.27,0,0,1-1.33.68c-.26,0-.4-.19-.4-.58a5.92,5.92,0,0,1,.23-1.46q.23-.88.76-2.93a16.38,16.38,0,0,0,.52-4,3.89,3.89,0,0,0-1.26-3.1,6.33,6.33,0,0,0-8,.67q-1.15-2.48-2.45-2.48a1.77,1.77,0,0,0-1.4,1,16,16,0,0,0-2.45,6.3,28.75,28.75,0,0,0-.32,3.49c-.32.32-.67.65-1.09,1a8.33,8.33,0,0,1-5.44,2.23,5.41,5.41,0,0,1-2.38-.58,2,2,0,0,1-1.08-1.84v-.9q1.44-.65,2.93-1.17A18.22,18.22,0,0,0,84.76,185a6.34,6.34,0,0,0,2-1.66,4,4,0,0,0,.77-2.54,3.26,3.26,0,0,0-1.06-2.52,4.32,4.32,0,0,0-3-1,8,8,0,0,0-3.69.88,9.61,9.61,0,0,0-3,2.47,12.53,12.53,0,0,0-2.11,3.76,12.71,12.71,0,0,0-.75,3.38,4,4,0,0,1-2,.56q-1.3,0-1.94-1.91A32.73,32.73,0,0,0,72,182.87a6.08,6.08,0,0,0,.65-2.65,3.2,3.2,0,0,0-.25-1.29,2.57,2.57,0,0,0-2.63-1.51,3.27,3.27,0,0,0-3,1.51,7,7,0,0,0-.79,3.78,12.42,12.42,0,0,0,.43,3.13,27.25,27.25,0,0,1-1.76,3q-.86,1.24-1.58,1.24a2.78,2.78,0,0,1-1.37-1.76,10.54,10.54,0,0,1-.14-1.87c0-.72,0-1.46-.07-2.23a20.38,20.38,0,0,0,.86-5.47,1.67,1.67,0,0,0-.47-1.13,1.7,1.7,0,0,0-1.33-.52q-2.3,0-3.1,1.15-.94,1.48-.5,4.9c.13,1.25.29,2.41.46,3.49l-.18.18q-3.6,3.74-4.54,3.74T51.93,188a21.78,21.78,0,0,1,.14-2.2,56.21,56.21,0,0,1,1.55-8.71l.94-1.35a13.59,13.59,0,0,0,.85-1.37,8.32,8.32,0,0,0,.63-1.53,5.77,5.77,0,0,0,.25-1.69,3.91,3.91,0,0,0-.79-2.05q-.9-1.44-1.95-1.44a1.76,1.76,0,0,0-1.29.79q-1.95,2.34-3.42,9.29l-.83-.22a8.59,8.59,0,0,0-2.16-.21A8.88,8.88,0,0,0,40,179.76a11.8,11.8,0,0,0-4,8.56c-1.52,1.46-2.52,2.2-3,2.2s-.76-1-.76-3a28.84,28.84,0,0,1,.29-4.64A25.27,25.27,0,0,0,34,180,3.05,3.05,0,0,0,32.86,178a3.42,3.42,0,0,0-2.39-1.1q-.65,0-1.15,1a5.56,5.56,0,0,0-2.7-.58,10.52,10.52,0,0,0-3.15.47,9.56,9.56,0,0,0-3.22,1.95,12.1,12.1,0,0,0-4.07,9.65,5.19,5.19,0,0,0,1.51,3.85,5.46,5.46,0,0,0,4.09,1.58,7.3,7.3,0,0,0,4.05-1,7.85,7.85,0,0,0,2.45-2.54q.65,3.35,2.56,3.35a6.81,6.81,0,0,0,2.88-.68,11.07,11.07,0,0,0,2.68-1.75l.19-.19a5.35,5.35,0,0,0,.87,1.22,5.53,5.53,0,0,0,4.14,1.58A7.1,7.1,0,0,0,48,191.42q.61,3.24,2.59,3.24a6.81,6.81,0,0,0,2.88-.68,11.07,11.07,0,0,0,2.68-1.75,9.68,9.68,0,0,0,2-2.34v0c.16.65.34,1.25.53,1.81q1.08,3.17,2.2,3.17,2.84,0,7.05-5.47A4.69,4.69,0,0,0,72,191.6a5.5,5.5,0,0,0,2.18-.43,3.92,3.92,0,0,0,.2.5q1.55,3.1,5.83,3.1,5.4,0,8.5-2.92l.33-.34a8.67,8.67,0,0,0,.34,2.68,1.25,1.25,0,0,0,1.24.94,2.37,2.37,0,0,0,.83-.18q3.06-1.19,3.06-2.41a7.78,7.78,0,0,0-.38-1.8,9,9,0,0,1-.38-2.52V188a13.94,13.94,0,0,1,1.82-4.59q1.35-2.21,2.84-2.21t1.49,1.3A6.66,6.66,0,0,1,99.7,184q-.18.76-.56,2.41a16.35,16.35,0,0,0-.38,3.64q0,4.61,2.88,4.61a.21.21,0,0,0,.14,0q1.15,0,5.33-2.45a10.74,10.74,0,0,0,.93-1,7.85,7.85,0,0,0,.42,1.34,4.22,4.22,0,0,0,1,1.51,2.66,2.66,0,0,0,1.82.56,7.28,7.28,0,0,0,2.79-.68,12.25,12.25,0,0,0,2.92-1.75c.31-.25.57-.51.84-.78a3.45,3.45,0,0,0,1.43,2.2,7.53,7.53,0,0,0,4.38,1.08,4.64,4.64,0,0,0,2.88-1,7.07,7.07,0,0,0,2-2.29,5.31,5.31,0,0,0,.7,2.27,2.08,2.08,0,0,0,1.93.9.4.4,0,0,0,.18,0q1.11,0,5.29-2.45l.41-.41a7.7,7.7,0,0,0,.33,2.35,1.25,1.25,0,0,0,1.24.94,4,4,0,0,0,2.45-.68,1.94,1.94,0,0,0,.9-1.55l-.22-4.39a11.36,11.36,0,0,1,.32-2.57l.65-2.75a9.81,9.81,0,0,0,1.42.07,4.7,4.7,0,0,0,1.78-.32,15.8,15.8,0,0,0-1.69,7.16,6.25,6.25,0,0,0,.87,3.24,2.73,2.73,0,0,0,2.48,1.33,6.44,6.44,0,0,0,5-2.38l.08-.09c1.09,1.71,2.92,2.57,5.52,2.57q5.4,0,8.5-2.92a7.57,7.57,0,0,0,1.8-2.43,5.73,5.73,0,0,0,.54-2.25Q169,186.17,168.49,186.17Zm-8.57-5.69q1.12,0,1.12.9a2.36,2.36,0,0,1-1.12,1.8q-.5.36-1.17.76t-1.42.9Q158.05,180.48,159.93,180.48Zm-78,0q1.11,0,1.12.9a2.35,2.35,0,0,1-1.12,1.8q-.51.36-1.17.76c-.45.26-.92.56-1.42.9Q80.08,180.48,81.95,180.48Zm-54,6.23a7.32,7.32,0,0,1-.83,1.94A4.31,4.31,0,0,1,23.52,191q-2.05,0-2.05-2.77a7.75,7.75,0,0,1,2.16-5.62,9.5,9.5,0,0,1,5.08-2.81A28.82,28.82,0,0,0,28,186.71Zm19.69.22a6,6,0,0,1-1.93,3.13,4.09,4.09,0,0,1-2.47.94q-2.05,0-2.05-2.77a7.75,7.75,0,0,1,2.16-5.62,9.49,9.49,0,0,1,5-2.81A47.36,47.36,0,0,0,47.68,186.92Z" fill="#fff"/><rect id="bottom-line" y="162" width="256" height="2" fill="#fff"/><g id="tahoe-section"><path d="M73.77,129.74H87.48l-6.91-19.86ZM0,96v62H256V96Zm45.49,14.11v34.57h4.57v5H35.68v-5h4.07V110.11H29.62V117h-6V105.3H63.22V117h-6v-6.91Zm57.93,39.61H89v-5H92.7L89.18,134.6H72.1l-3.43,10.08h4.57v5H58.83v-5H62.7L76.53,105.3h8.64L99,144.68h4.45Zm49.74-39.37h-4.22v34.34h4.22v5H138.75v-5h4.45v-16H117.51v16H122v5H107.54v-5h4.22V110.34h-4.22v-5H122v5h-4.45v13.45H143.2V110.34h-4.45v-5h14.41Zm43.19,26.18a22.64,22.64,0,0,1-4.39,7.34,20.54,20.54,0,0,1-6.74,4.94,21.46,21.46,0,0,1-17,.09,21.36,21.36,0,0,1-11.34-12.38,26.47,26.47,0,0,1-1.55-9,25.7,25.7,0,0,1,1.57-9,22.4,22.4,0,0,1,4.39-7.34,20.64,20.64,0,0,1,6.74-4.92,20.75,20.75,0,0,1,24,4.92,22.37,22.37,0,0,1,4.37,7.34,25.92,25.92,0,0,1,1.55,9A25.6,25.6,0,0,1,196.35,136.52Zm35.57-18.65h-6v-7.5H210.07v14.21H223.4v5H210.07v15.06h15.85v-7.5h6v12.54H200.11v-5h4.22V110.37h-4.22V105.3h31.82Zm-44.51-3.11a14.92,14.92,0,0,0-4.94-3.62,14,14,0,0,0-5.86-1.28,13.85,13.85,0,0,0-6.33,1.44,14.89,14.89,0,0,0-4.83,3.85,17.61,17.61,0,0,0-3.08,5.63,22.12,22.12,0,0,0,.12,14,15.89,15.89,0,0,0,3.18,5.33,17.4,17.4,0,0,0,4.72,3.56,13.21,13.21,0,0,0,6.22,1.44,13.75,13.75,0,0,0,6.31-1.44,14.92,14.92,0,0,0,4.82-3.85,17.65,17.65,0,0,0,3.08-5.61,20.82,20.82,0,0,0,1.08-6.74,21,21,0,0,0-1.19-7A16.59,16.59,0,0,0,187.41,114.77Z" fill="#fff"/></g><rect id="top-line" y="90" width="256" height="2" fill="#fff"/><polygon id="mountain" points="154 27 146 39 128 0 110 39 102 27 66 86 190 86 154 27" fill="#fff"/></svg>