<svg version="1.1" id="Layer_1" xmlns="http://www.w3.org/2000/svg" x="0" y="0" width="64" height="84" xml:space="preserve">
  <style>
    .st0{fill:none;stroke:#c1272d;stroke-width:2;stroke-linecap:round;stroke-linejoin:round;stroke-miterlimit:10}
  </style>
  <path class="st0" d="M3.1 67.2V51c0-4.6 4.9-5.8 4.9-5.8V19.1s.1-6.9 6.5-7.1h34.8c7 0 6.7 7.1 6.7 7.1v26.1s5 .7 5 5.8v16.2M8.1 35.7H56M32 19.9v15.7M8 45.2h12.1m23.9 0h12"/>
  <path class="st0" d="M20.2 67.2v-24c0-1 .8-1.9 2-1.9h19.9c1 0 2 .8 2 1.9v23.9H20.2zM9.6 83H4.8c-1 0-2-.8-2-1.9v-7.8l8.7.7v7.1c0 1.1-.8 1.9-1.9 1.9zm49.7 0h-4.8c-1 0-2-.8-2-1.9V74l8.7-.7v7.8c.1 1.1-.9 1.9-1.9 1.9zm1-45H56V26.4h4.3c1 0 2 .8 2 1.9v7.8c-.1 1.1-.9 1.9-2 1.9zM3.8 38h4.3V26.4H3.8c-1 0-2 .8-2 1.9v7.8c0 1.1.9 1.9 2 1.9zM8.1 1s-.2 18.7 0 18.7H56V1M22.7 16.7v-4.1m9.4 4.1v-4.1m9.3 4.1v-4.1M14.4 55s.1-.7-.6-.7H3.1v6.2h10.6s.7 0 .7-.6V55zm35.3 0s-.1-.7.6-.7h10.8v6.2H50.4s-.7 0-.7-.6V55z"/>
  <path class="st0" d="M62.8 67.2H1.2v6.1l30.6 2.3 30.9-2.3v-6.1z"/>
</svg>
