<svg version="1.1" id="Layer_1" xmlns="http://www.w3.org/2000/svg" x="0" y="0" width="76" height="80" xml:space="preserve">
  <style>
    .st0{fill:none;stroke:#c1272d;stroke-width:1.9024;stroke-linecap:round;stroke-linejoin:round;stroke-miterlimit:10}
  </style>
  <path class="st0" d="M60.8 52.6c-.3.2-.4.3-.4.3l.7 1.2c.8 1.7.9 3.5.9 5l.1 3.1c.1 2 .1 4.5.1 5.9 0 .4 0 .6-.2 1v6.5c0 .9 0 1.9-.2 2.5-.2.4-.5 1-1.6 1h-6.7c-.8 0-1.3-.4-1.6-1.1-.2-.5-.2-1.5-.2-2.4v-2.1l-1.7.1c-6.5.6-11.6 1-16.6 1-4.7 0-9.6-.3-17.3-1l-1.6-.2v2.2c0 .9 0 1.9-.2 2.5-.2.4-.5 1-1.6 1h-7c-.8 0-1.3-.4-1.6-1.1-.3-.7-.3-1.6-.3-2.5V68.9c-.2-1.7-.1-5-.1-7.3V60c.1-1.4.3-3.5 1.2-5.6l1-1.8S1.5 50.1 1.3 50c-.1-.2-.1-.4-.1-.4v-2.5c0-.5.5-.5.6-.5h5.9l1 .9 4.9-11.2c.2-.4.8-.6.8-.6 2.4-1 11.4-1.2 18.4-1.2h1.3"/>
  <path class="st0" d="M34.1 45h-1.5c-3.8 0-7.7.2-12.4.6-3.9.4-8.3 1-11.5 1.5M4.2 57.9l10.4 1c.4.1.8.4.8.8v5.1c0 .4-.3.9-.8.8l-10.7-.9m58.3-.1l-10.5 1c-.6.1-.8-.4-.8-.8v-5.1c0-.4.4-.8.8-.8l10.4-1m2-53h8.3c1.2 0 2.2 1 2.2 2.2v43.2c0 1.2-1 2.2-2.2 2.2H36.2c-1.2 0-2.1-1-2.1-2.2V7.2c0-1.2 1-2.2 2.2-2.2h8.4"/>
  <path class="st0" d="M46.9 9.4c-1.2 0-2.2-1-2.2-2.2V3.3c0-1.2 1-2.2 2.2-2.2h14.9c1.3 0 2.3 1 2.3 2.2v3.9c0 1.2-1 2.2-2.2 2.2h-15zm4.7 64l10.2-1.2m-47.6 1.1L4.1 72.1m18.4-10.5h21.3M42 68.1H24.5m40.9-52.2h-22m22 7.6h-22m22 7.7h-22m22 7.6h-22m22 7.6h-22"/>
</svg>
