<svg version="1.1" id="Layer_1" xmlns="http://www.w3.org/2000/svg" x="0" y="0" width="90" height="88" xml:space="preserve">
  <style>
    .st0{fill:none;stroke:#c1272d;stroke-width:2.0;stroke-linecap:round;stroke-linejoin:round;stroke-miterlimit:10}.st1{fill:#c1272d}
  </style>
  <path class="st0" d="M24 49.3h7.1l-2.8-8.5-10.6-3.1s-8.9-28-9-28.5c-.2-.5.3-.6.3-.6l22.3-7.2s.4-.2.5.3c0 .3 8.2 25.8 9 28.3v.4l-6.7 8.4 3.7 10.5H42v-1.6c0-.3.4-.3.4-.3h8.3s.5 0 .5.5v10.3s0 .4-.5.4h-8.3c-.5 0-.5-.5-.5-.5v-1.5h-9.5c-2.2.2-3.6 1.7-4.2 3.4l-3.1 9.5-1.7 5.2-.2.7c-.2.5 0 1.2.4 1.5.5.4.7.9.7 1.6 0 .5-.4 1.4-1.3 1.4H11.4c-.7 0-.4-.7-.4-.7l9.1-27.7c.5-1.2 2-2.2 3.9-2.2z"/>
  <circle class="st1" cx="59.6" cy="53" r="1.5"/>
  <circle class="st1" cx="66.1" cy="48.5" r="1.5"/>
  <circle class="st1" cx="72.7" cy="43.8" r="1.5"/>
  <circle class="st1" cx="79.3" cy="39.1" r="1.5"/>
  <circle class="st1" cx="86" cy="34.5" r="1.5"/>
  <circle class="st1" cx="72" cy="53" r="1.5"/>
  <circle class="st1" cx="66.1" cy="57.7" r="1.5"/>
  <circle class="st1" cx="72.7" cy="62.4" r="1.5"/>
  <circle class="st1" cx="79.3" cy="67" r="1.5"/>
  <circle class="st1" cx="80.1" cy="53" r="1.5"/>
  <circle class="st1" cx="88.1" cy="53" r="1.5"/>
  <path class="st0" d="M33.8 56.9c.5 5.5 2.2 9.4 6.4 13.6m-7.8-13.8H18.6m9.7-16l5.8-1.8m3.7 10.4h-6.7M10.2 13.4h25.1m-15 37.8h-5.8m39.7-.4h-3m3 4.4h-3"/>
</svg>
