<svg version="1.1" id="Layer_1" xmlns="http://www.w3.org/2000/svg" x="0" y="0" width="90" height="90" xml:space="preserve">
  <style>
    .st0{fill:#b3111a}.st2,.st3{stroke-linecap:round;stroke-linejoin:round;stroke-miterlimit:10}.st2{fill:#b3111a;stroke:#b3111a;stroke-width:.1731}.st3{stroke:#fff;stroke-width:.1688}.st3,.st5{fill:#fff}
  </style>
  <circle class="st0" cx="45.1" cy="45" r="33.4"/>
  <path d="M45.1 8.7C25 8.7 8.7 25 8.7 45.1S25 81.5 45.1 81.5s36.4-16.3 36.4-36.4S65.2 8.7 45.1 8.7z" fill="none" stroke="#b3111a" stroke-width="1.153" stroke-miterlimit="10"/>
  <path class="st2" d="M3 43.8l.9 2.2 2.3-.1-1.8 1.5.8 2.2-2-1.3-1.8 1.4.6-2.2-1.9-1.3 2.3-.1zM87 41.4l.8 2.2h2.3l-1.9 1.3.7 2.2-1.9-1.3-1.8 1.3.6-2.2-1.8-1.3h2.3z"/>
  <g id="stars">
    <path class="st3" d="M17 33.6l1.8.1.7-1.6.4 1.7 1.7.1-1.5 1 .4 1.7-1.3-1.1-1.5.9.7-1.7zM23.4 23.8l1.6.8 1.2-1.2-.3 1.7 1.6.8-1.7.3-.3 1.7-.8-1.5-1.8.2 1.3-1.2zM75.3 44.6l-1.7.6v1.7l-1-1.4-1.7.5 1.1-1.4-1.1-1.4 1.7.5 1-1.4v1.8zM73 33.1l-1.4 1.2.7 1.6-1.5-1-1.3 1.2.4-1.7-1.5-1 1.7-.1.4-1.7.7 1.7zM66.3 23.3l-.7 1.5 1.2 1.3-1.8-.3-.7 1.6-.3-1.7-1.8-.3 1.6-.8-.3-1.8 1.2 1.3zM15 45.2l1.6-.5V43l1 1.4 1.7-.6-1 1.4 1 1.5-1.7-.5-1 1.3v-1.7zM73.1 56.5l-1.8-.2-.7 1.7-.4-1.8-1.7-.1 1.4-.9-.3-1.7 1.3 1.1 1.5-.9-.7 1.6zM66.7 66.2l-1.6-.8-1.2 1.2.3-1.7-1.6-.8 1.7-.3.3-1.7.8 1.6 1.7-.3-1.2 1.2zM17.1 56.9l1.4-1.1-.7-1.7 1.5 1 1.4-1.2-.5 1.7 1.5 1-1.7.1-.4 1.7-.7-1.6zM23.8 66.8l.7-1.6-1.2-1.2 1.7.3.8-1.6.3 1.7 1.8.3-1.6.8.3 1.7-1.3-1.2z"/>
  </g>
  <g id="copy">
    <path d="M29.9 44c1.8-3.2 4.2-4.8 7.1-4.8 1.7 0 2.9.5 3.9 1.5s1.5 2.4 1.5 4.1c0 1.3-.2 2.5-.8 3.7s-1.2 2.3-2.1 3.2-1.9 1.7-3 2.2c-1.2.6-2.4.8-3.5.8-2 0-3.5-.6-4.6-1.9-1.1-1.3-1.7-3.1-1.7-5.4 0-1.9.4-3.8 1.1-5.7.7-2 1.8-3.7 3-5.2s2.7-2.7 4.3-3.7c1.6-.9 3.2-1.4 4.8-1.4 1.1 0 2.1.2 2.8.8.7.5 1.1 1.2 1.1 2 0 .6-.2 1.1-.7 1.5s-1 .7-1.7.7h-.5c.4-.6.6-1.3.6-1.9 0-.7-.2-1.3-.6-1.7-.4-.4-1.1-.5-1.9-.5-1.3 0-2.6.5-3.8 1.5-1.2 1-2.3 2.4-3.2 4.2-.5 1.1-1 2.1-1.4 3.2s-.6 2-.7 2.8zm-.7 5.6c0 3 1.2 4.6 3.7 4.6 1.1 0 2.2-.4 3.3-1.4s1.9-2.1 2.5-3.7c.6-1.5.9-3.1.9-4.7 0-1.3-.3-2.3-.9-3-.6-.7-1.4-1-2.5-1-1.8 0-3.3.8-4.7 2.5-.6.8-1.2 1.9-1.7 3.2-.3 1.3-.6 2.5-.6 3.5zm34.9-10.7c0 2-.4 4.1-1.3 6.4-.9 2.2-2 4.1-3.4 5.7-2.3 2.4-4.7 3.7-7.2 3.7-2 0-3.5-.7-4.7-2.1-1.2-1.4-1.8-3.3-1.8-5.7 0-2.2.5-4.4 1.5-6.7s2.4-4.3 4-6c1.9-1.9 4-2.8 6.3-2.8 2 0 3.6.7 4.8 2.1 1.2 1.4 1.8 3.2 1.8 5.4zm-2.7-1.5c0-1.7-.3-3.1-1.1-4-.7-.9-1.7-1.4-3-1.4-2.6 0-4.9 2.2-6.8 6.4-.7 1.8-1.4 3.6-1.8 5.4-.4 1.9-.6 3.4-.6 4.8 0 1.7.3 3.1 1.1 4.1.7 1 1.7 1.4 3 1.4 1.2 0 2.4-.4 3.4-1.4s2-2.4 3-4.4c.9-1.7 1.5-3.5 2-5.5.6-1.9.8-3.8.8-5.4z" fill="#fff" stroke="#fff" stroke-width=".519" stroke-miterlimit="10"/>
    <path class="st5" d="M33.8 68.3l-2-2.8c0-.1 0-.2.1-.2h.6s.1 0 .1.1l1.5 2.1 1.5-2.1.1-.1h.6c.1 0 .2.1.1.2l-2 2.8v2.6c0 .1-.1.1-.1.1h-.5c-.1 0-.1-.1-.1-.1l.1-2.6zm4.2-2.9c0-.1 0-.1.1-.1h3.3c.1 0 .1.1.1.1v.4c0 .1 0 .1-.1.1h-2.6v1.7H41c.1 0 .1.1.1.1v.4c0 .1-.1.1-.1.1h-2.2V70h2.6c.1 0 .1.1.1.1v.4c0 .1 0 .1-.1.1h-3.3c-.1 0-.1-.1-.1-.1v-5.1zm4.8 5.4l2.5-5.6.1-.1h.1s.1 0 .1.1l2.5 5.6c0 .1 0 .2-.1.2h-.5c-.1 0-.1 0-.2-.1l-.5-1.1h-2.7c-.1.4-.3.7-.5 1.1 0 0-.1.1-.2.1h-.5c-.1.1-.2-.1-.1-.2zm3.7-1.7l-1-2.3-1 2.3h2zm3.2-3.7c0-.1 0-.1.1-.1h2.3c1 0 1.8.8 1.8 1.8 0 .8-.5 1.4-1.2 1.7l1.1 2.1c0 .1 0 .2-.1.2H53s-.1 0-.1-.1l-1.1-2.2h-1.3v2.1c0 .1-.1.1-.1.1h-.5c-.1 0-.1-.1-.1-.1l-.1-5.5zm2.3 2.7c.5 0 1-.4 1-1 0-.5-.5-1-1-1h-1.5v2H52zm3.3 2.1c.1-.1.1-.2.2-.3.1-.1.2-.1.3 0 0 0 .7.6 1.3.6.6 0 .9-.3.9-.8s-.4-.8-1.3-1.2-1.5-.8-1.5-1.8c0-.6.5-1.5 1.8-1.5.8 0 1.5.4 1.5.5s.1.1 0 .3c0 .1-.1.2-.2.3 0 .1-.2.1-.3.1 0 0-.6-.4-1.1-.4-.7 0-.9.4-.9.7 0 .5.3.8 1.1 1 1 .4 1.8.8 1.8 1.9 0 .9-.8 1.6-1.9 1.6-1 0-1.7-.5-1.8-.6.1-.2 0-.2.1-.4z"/>
    <path class="st0" d="M6.1 39.6l-5.3-4s-.1-.1 0-.1v-.1c0-.1 0-.1.1-.1l6.5-1.4c.1 0 .2 0 .2.2l-.1.8c0 .1-.1.2-.2.2l-1 .2-.6 2.6.9.6c.1 0 .1.1.1.3l-.1.8c-.2 0-.4.1-.5 0zm-1-4.2l-2.2.5 1.8 1.3.4-1.8zm-2.7-5.1c-.1 0-.1-.1-.1-.2l.3-.8c0-.1.1-.1.2-.1l3.4 1.4c.7.3 1.5 0 1.8-.7.3-.7 0-1.4-.8-1.7l-3.4-1.4c-.1 0-.1-.1-.1-.2l.3-.8c0-.1.1-.1.2-.1l3.5 1.4c1.3.5 1.9 2 1.3 3.3-.5 1.3-2 1.9-3.2 1.4l-3.4-1.5zM7 22.6l-.7 1.2c0 .1-.1.1-.2 0l-.6-.3c-.1 0-.1-.1 0-.2l2.1-3.4c0-.1.1-.1.2 0l.6.4c.1 0 .1.1 0 .2l-.7 1.2 4.3 2.6c.1 0 .1.1 0 .2l-.4.7c0 .1-.1.1-.2 0L7 22.6zm3.7-7.2c1.2-1.4 3.2-1.5 4.6-.3 1.4 1.2 1.5 3.2.3 4.6-1.2 1.3-3.2 1.5-4.6.3s-1.5-3.2-.3-4.6zm4 3.5c.7-.9.6-2.2-.2-2.9-.9-.7-2.2-.6-2.9.2-.7.9-.6 2.2.2 2.9.8.7 2.2.6 2.9-.2zm.4-7.7V11l1.6-1.3c.9-.7 2-.7 2.7 0 .4.5.3 1.3.1 1.7.5-.2 1.3-.2 1.8.4.6.8.4 1.9-.4 2.6l-1.7 1.4H19l-3.9-4.6zm3.3.6c.3-.3.4-.8.1-1.1-.3-.3-.7-.4-1.1-.1l-.7.6 1 1.2.7-.6zm1.7 1.9c.3-.3.4-.8.1-1.1s-.8-.3-1.2 0l-.8.6 1 1.2.9-.7zm3.2-8.5c1.6-.9 3.5-.3 4.4 1.3.9 1.5.3 3.5-1.3 4.4-1.6.9-3.5.3-4.4-1.3-.8-1.6-.3-3.5 1.3-4.4zm2.5 4.7c1-.5 1.4-1.8.8-2.8s-1.8-1.4-2.8-.8c-1 .5-1.4 1.8-.8 2.8s1.8 1.3 2.8.8zM29 2.8c0-.1 0-.2.1-.2l2.1-.6c1.7-.5 3.4.4 4 2.1s-.4 3.4-2.1 4l-2.1.5c-.1 0-.2 0-.2-.1L29 2.8zm3.6 4.1c1.1-.3 1.7-1.5 1.3-2.6-.3-1.1-1.4-1.7-2.5-1.3l-1 .3 1.2 3.9 1-.3zm6-3.4L36.2.8c-.1-.1 0-.2.1-.3l.9-.1h.1L39 2.3 40.1 0h.1l.9-.1c.1 0 .2.1.2.2l-1.7 3.2.4 2.8c0 .1 0 .2-.1.2l-.8.1c-.1 0-.2 0-.2-.1l-.3-2.8zM50.2 0c.9.1 1.5.4 2.1 1.1v.2l-.6.5h-.2c-.3-.4-.8-.6-1.3-.7C49 1 48 1.9 47.9 3s.6 2.2 1.8 2.3c.5 0 1-.1 1.4-.4h.2l.5.6v.2c-.7.5-1.5.7-2.3.6-1.8-.2-3.1-1.8-2.9-3.5.2-1.7 1.8-3 3.6-2.8zM58 1.6c1.7.5 2.7 2.3 2.2 4.1s-2.3 2.7-4 2.2-2.7-2.3-2.2-4c.5-1.8 2.3-2.8 4-2.3zm-1.6 5.1c1.1.3 2.3-.3 2.6-1.4.3-1.1-.3-2.3-1.4-2.6-1.1-.3-2.3.3-2.6 1.4-.3 1.1.4 2.3 1.4 2.6zM63.6 4c0-.1.1-.1.2-.1l.7.4c.1 0 .1.1.1.2L62.5 9l2.1 1c.1 0 .1.1.1.2l-.3.6c0 .1-.1.1-.2.1l-2.9-1.5c-.3.1-.3 0-.3-.1L63.6 4zm5.3 2.9c0-.1.1-.1.2 0l.7.4c.1 0 .1.1 0 .2L67 11.7l1.9 1.3c.1 0 .1.1 0 .2l-.4.6c0 .1-.1.1-.2 0L65.7 12c-.1 0-.1-.1 0-.2l3.2-4.9zm4.9 3.5s.2-.1.2 0l.6.5s.1.2 0 .2l-3.9 4.5s-.2.1-.2 0l-.6-.5s-.1-.2 0-.2l3.9-4.5zm-1 6.1l.6-.1c.1 0 .2.1.2.2 0 0 .1.9.5 1.4.3.3.8.4 1.1.1.3-.3.3-.8 0-1.6s-.5-1.9.3-2.5c.6-.5 1.7-.7 2.6.3.6.7.7 1.5.8 1.7 0 .1 0 .2-.2.2l-.6.1c-.1 0-.3 0-.3-.1s-.1-.9-.5-1.3-.8-.3-1-.1c-.3.3-.3.7 0 1.5.3.9.6 2-.2 2.7-.7.6-1.9.6-2.7-.3-.8-.8-.8-1.7-.8-1.9.1-.2.1-.2.2-.3zM81 18h.2l.5.7v.2l-4.8 3.5h-.2l-.5-.7v-.2L81 18zm4.1 6c.8 1.6.2 3.5-1.4 4.4-1.6.8-3.5.2-4.4-1.4s-.2-3.5 1.4-4.4c1.6-.8 3.5-.2 4.4 1.4zm-4.7 2.5c.5 1 1.8 1.4 2.8.9 1-.5 1.4-1.8.9-2.8-.5-1-1.8-1.4-2.8-.9-1.1.5-1.4 1.7-.9 2.8zm7.1 3.2c.1 0 .2 0 .2.1v.2L85 34.7l3.6-1c.1 0 .2 0 .2.1l.2.8c0 .1 0 .2-.1.2L83 36.5c-.1 0-.2 0-.2-.1v-.1l2.9-4.8-3.7 1.1c-.1 0-.2 0-.2-.1l-.2-.8c0-.1 0-.2.1-.2l5.8-1.8zM1.5 56.4l6.6.7s.1 0 .1.1V57.5l-4.9 4.6c-.1.1-.2 0-.3 0l-.2-.7c0-.1 0-.2.1-.3l.8-.7-.9-2.5-1.1-.1c-.1 0-.2 0-.2-.2l-.2-.7c-.1-.4 0-.5.2-.5zm3 3.1L6.1 58l-2.2-.1.6 1.6zM9.4 61c.1 0 .2 0 .2.1l.1.2L8 66.5l3.3-1.8h.2l.4.7v.2l-5.4 2.8c-.1 0-.2 0-.2-.1l-.1-.2L8 63l-3.4 1.8h-.2L4 64v-.2L9.4 61zm3.4 6.1h.2l1.3 1.7c1.1 1.4.8 3.4-.5 4.4-1.4 1.1-3.4.8-4.5-.5L8.1 71v-.2l4.7-3.7zM10.2 72c.7.9 2 1 2.9.3s1.1-2 .3-2.8l-.6-.8-3.2 2.5.6.8zm8.9 2.1s.1-.1.2 0l1.7 1.3c.9.7 1 2 .3 2.8-.7.9-2 1-2.8.3l-.9-.7-1.3 1.7s-.1.1-.2 0l-.8-.5c-.1 0-.1-.1 0-.2l3.8-4.7zm0 3.6c.4.3 1 .3 1.3-.1.3-.4.2-.9-.1-1.3l-.8-.6-1.2 1.3.8.7zm.2 4.2l5.5-3.7H25.1c.1 0 .1.1.1.1l-.7 6.7c0 .1-.1.2-.2.1l-.7-.4c-.1 0-.1-.1-.1-.3l.1-1.1-2.3-1.3-.9.6c-.1 0-.2.1-.3 0l-.7-.4c-.2-.1-.2-.2-.1-.3zm4.3.4l.2-2.2-1.8 1.2 1.6 1zm4.8-2c0-.1.1-.1.2-.1l.8.3c.1 0 .1.1.1.2l-2.4 5.4c0 .1-.1.1-.2.1l-.8-.2c-.1 0-.1-.1-.1-.2l2.4-5.5zm2.8 1.2c0-.1.1-.1.2-.1h.2l2.4 4.9 1.1-3.6c0-.1.1-.1.2-.1l.8.2c.1 0 .1.1.1.2l-1.8 5.8c0 .1-.1.1-.2.1H34l-2.4-5-1.1 3.7c0 .1-.1.1-.2.1l-.8-.2c-.1 0-.1-.1-.1-.2l1.8-5.8zm7.5 2.9l-1.4-.2c-.1 0-.1-.1-.1-.2l.1-.7c0-.1.1-.1.2-.1l3.9.6c.1 0 .1.1.1.2l-.1.7c0 .1-.1.1-.2.1l-1.4-.2-.7 5c0 .1-.1.1-.2.1H38c-.1 0-.1-.1-.1-.2l.8-5.1zm6.7-.3c0-.1 0-.2.1-.2l3.7-.2c.1 0 .2 0 .2.1v.7c0 .1 0 .2-.1.2l-2.6.1.1 1.5 2.2-.1c.1 0 .2 0 .2.1v.7c0 .1 0 .2-.1.2l-2.2.1.1 1.7 2.6-.1c.1 0 .2 0 .2.1v.7c0 .1 0 .2-.1.2l-3.7.2c-.1 0-.2 0-.2-.1l-.4-5.9zm7.3 2.2l-2.3-2.4c-.1-.1 0-.2.1-.3l1-.2h.1l1.5 1.7.8-2.1s0-.1.1-.1l1-.2c.1 0 .2.1.2.2L54.1 86l2.4 2.5c.1.1 0 .2-.1.3l-.9.2h-.1l-1.7-1.8-.8 2.3s0 .1-.1.1l-.9.2c-.1 0-.2-.1-.2-.2l1-3.3zm3.8-3.9c0-.1 0-.2.1-.2l2-.7c1-.4 2.2.2 2.5 1.2.4 1-.2 2.2-1.2 2.6l-1.1.4.7 2c0 .1 0 .2-.1.2l-.8.3c-.1 0-.2 0-.2-.1l-1.9-5.7zm3 1.9c.5-.1.7-.7.5-1.2-.1-.5-.7-.7-1.2-.5l-1 .3.6 1.7 1.1-.3zm2.1-3.9v-.2l3.2-1.7h.2l.3.6v.2l-2.4 1.2.7 1.3 2-1h.2l.3.7v.2l-2 1 .7 1.4 2.4-1.2h.2l.3.6v.2l-3.2 1.7h-.2l-2.7-5zm4.7-2.5v-.2l2.1-1.5c.9-.6 2.1-.4 2.7.4.5.7.4 1.5 0 2.3l2.4 1.1c.1 0 .1.2 0 .3l-.8.5h-.1l-2.4-1.2-.8.6 1.3 1.9v.2l-.7.5h-.2l-3.5-4.9zm3.8.6c.4-.3.5-.9.2-1.3s-.9-.4-1.3-.2l-1.2.9 1 1.5 1.3-.9zm1.1-4.4v-.2l.6-.6h.2l4 4.4v.2l-.6.6h-.2l-4-4.4zm2.2-2.1s-.1-.1 0-.2l2.4-2.7c0-.1.2-.1.2 0l.5.5s.1.1 0 .2l-1.8 2 1.1 1 1.5-1.7s.2-.1.2 0l.5.5c.1 0 .1.2 0 .2l-1.5 1.7 1.2 1 1.8-2c0-.1.2-.1.2 0l.5.5s.1.1 0 .2L78.1 76c0 .1-.2.1-.2 0l-4.5-4zm3.5-4.1c-.1 0-.1-.1 0-.2l.1-.2 5.3-1.1-3.1-2c-.1 0-.1-.1 0-.2l.4-.7c0-.1.1-.1.2 0l5.1 3.2c.1 0 .1.1 0 .2l-.1.2-5.5 1 3.3 2.1c.1 0 .1.1 0 .2l-.3.6c0 .1-.1.1-.2 0l-5.2-3.1zm4.4-8.7c.3-.8.9-1.3 1.6-1.7.1 0 .2 0 .2.1l.3.7c0 .1 0 .1-.1.2-.4.2-.8.6-1 1.1-.4 1.1.1 2.2 1.2 2.6 1 .4 2.3 0 2.7-1.1.2-.5.2-1 0-1.5 0-.1 0-.2.1-.2l.7-.3c.1 0 .2 0 .2.1.3.8.3 1.6 0 2.4-.7 1.7-2.5 2.4-4.2 1.8-1.6-.6-2.4-2.6-1.7-4.2zm1.5-3.2c-.1 0-.1-.1-.1-.2l.9-3.6c0-.1.1-.1.2-.1l.7.2c.1 0 .1.1.1.2l-.6 2.6 1.4.3.5-2.2c0-.1.1-.1.2-.1l.7.2c.1 0 .1.1.1.2l-.5 2.2 1.5.4.6-2.6c0-.1.1-.1.2-.1l.7.2c.1 0 .1.1.1.2l-.9 3.6c0 .1-.1.1-.2.1L82.8 56z"/>
    <path class="st5" d="M36.3 18.9c1.7 0 3 1.3 3 3s-1.3 3-3 3-3-1.3-3-3 1.3-3 3-3zm0 5.1c1.2 0 2.2-1 2.2-2.2s-1-2.2-2.2-2.2-2.2 1-2.2 2.2 1 2.2 2.2 2.2zm4.2-4.8c0-.1 0-.2.1-.2h.6s.1 0 .1.1l1.8 4.1 1.8-4.1s0-.1.1-.1h.6c.1 0 .2.1.1.2l-2.5 5.6-.1.1H43s-.1 0-.1-.1l-2.4-5.6zm7.1-.1c0-.1 0-.1.1-.1H51c.1 0 .1.1.1.1v.4c0 .1 0 .1-.1.1h-2.6v1.7h2.2c.1 0 .1.1.1.1v.6c0 .1-.1.1-.1.1h-2.2V24H51c.1 0 .1.1.1.1v.4c0 .1 0 .1-.1.1h-3.3c-.1 0-.1-.1-.1-.1v-5.4zm5.8 0c0-.1 0-.1.1-.1h2.3c1 0 1.8.8 1.8 1.8 0 .8-.5 1.4-1.2 1.7l1.1 2.1c0 .1 0 .2-.1.2h-.6s-.1 0-.1-.1l-1.1-2.2h-1.3v2.1c0 .1-.1.1-.1.1h-.5c-.1 0-.1-.1-.1-.1l-.2-5.5zm2.3 2.7c.5 0 1-.4 1-1 0-.5-.5-1-1-1h-1.5v2h1.5z"/>
  </g>
</svg>
