<svg version="1.1" id="Layer_1" xmlns="http://www.w3.org/2000/svg" x="0" y="0" width="92" height="45" xml:space="preserve">
  <style>
    .st0{fill:none;stroke:#c1272d;stroke-width:2;stroke-linecap:round;stroke-linejoin:round;stroke-miterlimit:10}
  </style>
  <path class="st0" d="M60.9 37.4H22.7m-13 0H2.2s-.9.2-1.1-.6-.2-5.7-.2-5.7h3.4l.1-6.6 2.8-3.6 5.1-1L18 6.2s.3-.6.7-.6h18.9s.8.1.8.7v21.2h20.8s2.2-2.9 7.8-3c5.5-.1 7.9 3 7.9 3h6.9s8.7 8.1 8.9 8.5c.6.7-.2 1.4-.2 1.4H73.9"/>
  <ellipse class="st0" cx="67.4" cy="37.4" rx="6.5" ry="6.6"/>
  <ellipse class="st0" cx="16.2" cy="37.4" rx="6.5" ry="6.6"/>
  <path class="st0" d="M12.9 19.9h14v-14M38.6 22L63.1 2s.4-.8 1.6-.8h2.9s.7-.1.8.8c.1.9-21.6 25.2-21.6 25.2M66.5 5v8.8s-3.1.3-3 3.2c.1 2.1 1.6 3.1 2.9 3s3-1 3-3.1M38.4 27.5v9.3"/>
</svg>
