<svg version="1.1" id="Layer_1" xmlns="http://www.w3.org/2000/svg" x="0" y="0" width="94" height="58" xml:space="preserve">
  <style>
    .st0{fill:none;stroke:#c1272d;stroke-width:2;stroke-linecap:round;stroke-linejoin:round;stroke-miterlimit:10}
  </style>
  <path class="st0" d="M80.7 29.1c4.3 0 6.9 0 7.2-.1 1.4-.2 4.8-5 5.2-6.3.2-.4-.7-.8-1.1-2.8-.9-4.1-2.8-8.8-2.8-8.8s-.1-.8-1.6-.8c-1.6 0-57.3 1.3-57.3 1.3S5.4 14.6 4 15.7c-1.4 1-.1 6.4-1.8 6.4-1.8 0-1 4.7-.5 5.7s2.4 1 2.4 1h6.3m15.3.3h39.6"/>
  <path class="st0" d="M84.2 10.7S73.3 1.8 70.7 1.5c-2.6-.3-26.2 0-27.9.5-1.6.5-11.8 8.4-12.8 9.9s-2.7 10-2 11.8c.7 1.8 2 5.2 2 5.2"/>
  <path class="st0" d="M52.6 1.9l-.6 9.6-.4 17.5"/>
  <circle class="st0" cx="17.9" cy="29.9" r="7.7"/>
  <circle class="st0" cx="72.9" cy="29.9" r="7.7"/>
  <path class="st0" d="M65.7 1.5l8.4 10 1.6 3.1s-.8 1.6-1.7 2.5c-.9.9-3.8.8-7 2.1-6.2 2.4-6.3 9.9-6.3 9.9M3.6 20.8l6.8-.9 1.1-1.3.6-4.2M84 10.8l2.6 7.6s.3 1.3 1.1 1.3c2 0 4.1-.1 4.1-.1M25.3 34H66m-32.7.7l24.5 21.8m1.1-21.8l-25 21.8m-14.5.3h52.8"/>
</svg>
