<svg xmlns="http://www.w3.org/2000/svg" width="219.1" height="166.1" viewBox="0 0 219.1 166.1">
  <path fill="#FFF" d="M219 51.1c-.2-1.9-1.1-3.5-2.5-4.6 1.8-3.4 2.4-6.5 2-9.9-.6-4.8-4.1-8.1-8.7-8.1-1.6 0-3.2.4-5 1.1-1.7.7-3.2 1.7-4.6 2.9-.1-2.4-1.1-4-1.9-5-1.3-1.4-3.1-2.2-5.1-2.2-1.1 0-2.3.2-3.5.8-2.5 1.1-6.5 4.3-8.1 7.9-15.1-20.5-39.5-34-67.1-34-23.7 0-45.1 10-60.2 25.9-.2-.2-.4-.3-.6-.4-1.8-.5-5.6-1.5-7.2-2-.4-.1-.9-.3-1.4-.5-1.4-.5-3-1.1-4.2-1.1-.3 0-.6 0-.8.1-.8.2-1.2 1-1 1.8v.5c-.2.2-.3.4-.4.6h-.5c-.5-.2-.9-.5-1.3-.9s-.9-.8-1.5-1.1c-.2-.1-.5-.2-.7-.2-.2 0-.5.1-.7.2-.5.3-.7.7-.7 1.3 0 .5-.1 1.1-.2 1.7-.1.9-.3 1.9-.3 3 0 .3-.1.9-.3 1.1-.2.3-.2.7-.1 1 0 .1-.1.3-.1.3-.2.5-.4 1-.6 1.4-.2.4-.2.8 0 1.2 0 .1-.2.4-.2.6-.1.3-.7 1.8-.7 1.8-.6 1.2-1.3 2.4-1.5 3.4 0 .1 0 .2-.1.3 0 0-.2.4-.3.5-.3.5-.6 1.1-.9 1.7-.1.3-.3.7-.4.9-.1.1-.6.9-.6 1-1.7 1.6-1.9 3.8-2 5.6 0 .3 0 .6-.1.9-.1.8-.7 2.5-1.5 4.7-1.5 1.7-1 3.3-.6 4.3.2.6.3 1.1.2 1.6-.1.3-.1.6-.2.9-.2.8-.5 1.7-.3 2.7.1.7.4 1.2.7 1.7.1.2.3.5.3.7v.7s-.4 1-.2 1.4c.1.4.5.8.9.9 0 0 .2.2.3.2-.1.2-.1.5-.2.7-.1.3 0 .6.1.9 0 .1-.2 1.6.5 2.5.1.1.2.3.3.4-1 1.7.1 3.9 1.1 5.8l.6 1.2c-.2.6 0 1.3.4 1.7-.2.5-.5 1.1-.4 1.8.2 1.4 1.9 1.8 3.5 2.2.3.1 1.3.3 1.4.3 0 .2.3 4.1.4 4.9-.6-.3-1.3-.6-2-.7-.4-.1-.7-.1-1.1-.1-1.7 0-3.4.8-4.5 2.1-2.3.9-4.6 1.2-7.2 1.5-3.1.4-6.3.8-9.7 2.2C2.5 100-.5 105 .2 110.5c.3 2.7 1.8 5 4.2 6.5.9.6 2 .9 3.2.9.6 0 1.1-.1 1.6-.2 1.6-.5 3-1.6 3.7-3.1 0 0 .2-.5 2.2-1.3.4-.2.9-.3 1.3-.5l-1.8 24.5c-.2 2.9 1.6 5.4 4.4 6.1.6.2 1.3.2 2 .2 1.3 0 2.6-.3 3.9-.8 4.2-1.8 5.8-5.4 6.7-7.9v-.1c1.5 1.3 3.4 2 5.5 2 1.4 0 3-.3 4.5-1 1.9-.8 3.8-2.2 5.6-4.3.2.3 3.4 4.4 3.4 4.4 15.2 18.4 38.2 30.2 64 30.2 45.8 0 83-37.2 83-83 0-1.3-.8-11.4-.9-12.6 1.6-1.1 3-2.4 4-3.6.7.1 1.4.2 2.2.2 1.7 0 3.6-.4 5.5-1.2 5.5-2.4 11.3-9.1 10.6-14.8zM71.2 79.2c-3.9 1.7-6.6 5.2-6.9 9.4l-.1 1.1-.4.4h-.4c-1.1 0-2.2.2-3.3.6-.1-1.1-.3-2.2-.3-3.2 0-.3 0-.5-.1-.8 0-.4-.1-.9-.1-1.3V84v-.8c0-30.4 24.6-55 55-55 16.6 0 31.4 7.3 41.5 18.9l-.9.3c-2.6 1-4.7 3.2-5.6 6-.6.1-1.2.3-1.7.6-1.3.5-3.2 2.6-3.2 2.6l.3 1.2c-.4.4-1.4 1.7-1.7 2.2-.2-.1-1.8-.7-1.8-.7l-.1-.8s-.9-.3-1.4-.3c-1.1 0-2.3.2-3.5.8-2 .8-4.4 2.8-6.1 4.8-.8-.3-1.7-.4-2.6-.4-1.2 0-2.4.3-3.6.8-1.5.6-3.1 1.7-4.5 3-.3 0-.6-.1-.9-.1-1.1 0-2.3.3-3.5.8-3.4 1.4-5.6 4.1-7.2 6.3 0 0 0 .1-.1.1-1.2-.6-2.6-.8-4-.8-1.6 0-3.3.4-5.1 1.1-1.7.7-3.4 1.8-4.9 3.2-.7-3.8-3.8-6.6-7.8-6.6-1.2 0-2.3.2-3.4.7-2.9 1.2-5.2 3.8-6.1 6.9-.5-.1-.9-.1-1.4-.1-1.5-.3-2.9 0-4.1.5zm43.3 58.8c-15.4 0-29.2-6.3-39.2-16.4.2-.1.3-.1.5-.2 2-.8 4-2.4 5.7-4.3.6.2 1.3.2 2 .2 1.4 0 2.8-.3 4.2-.9 2.3-1 4.5-2.6 6.5-4.9.7.2 1.5.3 2.3.3 1.6 0 3.2-.4 4.9-1 2.9-1.2 5.8-3.7 8.2-7 .6.4 1.3.7 2 .9.6.2 1.3.2 2 .2 1.3 0 2.6-.3 3.8-.8 2.7-1.1 4.8-3.1 5.9-5.6 1.1.5 2.3.7 3.6.7 1.4 0 2.9-.3 4.4-.9 2.2-.9 4.5-2.8 6.2-5 .9.3 1.8.5 2.8.5 1.1 0 2.1-.2 3.2-.7 1.9-.8 3.7-2.3 5.2-4.6.9.4 1.8.6 2.9.6 1 0 2-.2 2.9-.6 3.2-1.4 5.7-4.6 7.5-7.6 1.4 1 3.1 1.6 5 1.6.9 0 1.7-.1 2.6-.4v1c-.2 30.3-24.8 54.9-55.1 54.9zm-77-111.7zm-8.3 17.6zm-4.7 12z"/>
  <path fill="#FFF" d="M170.2 137.5c-.2 0-.3-.1-.4-.2-.1-.2-.1-.4 0-.6.1-.1.2-.2.3-.2 0 0 .1 0 .1-.1.1-.1.2-.1.4-.2 0-.1 0-.1.1-.1 0-.1.1-.2.2-.3.1-.1.2-.1.3-.1 0-.1 0-.1.1-.2.1-.2.4-.2.6-.2.3.1.4.3.5.4v0c0-.2.1-.3.3-.4.2-.1.5-.3.7-.1 0-.1 0-.1.1-.2 0-.1.3-.4.7-.4.2 0 .4.2.4.3v.2c0 .3-.3.5-.6.6h-.4c0 .1-.1.2-.1.3 0 .1-.1.2-.2.3-.2.1-.5.1-.6 0 0 0-.1 0-.1-.1v.2c-.1.2-.2.3-.4.3-.1 0-.2 0-.3-.1v.1c-.1.3-.4.4-.7.4-.1.1-.2.2-.4.2h-.1c-.1 0-.1.1-.2.1-.1.1-.2.1-.3.1zM173.5 135.9zM173.5 135.9z"/>
  <path fill="#FFF" d="M172.8 135.5l.2.2.1-.2c-.1-.1-.2 0-.3 0zM173.7 134.9zM173.7 134.9zM137.6 118.5zM118.4 118zM122.7 118c0-.1 0 0 0 0zM136.6 115.7c-.1 0-.2 0-.3.1l-.1.1c.2 0 .5 0 .7-.1-.1-.1-.2-.1-.3-.1zM154.9 115zM144.7 114.6c0 .1 0 .1 0 0 0 .1 0 .1 0 0 0 .1 0 .1 0 0zM147 113.6c.1 0 .1 0 .2.1 0-.1-.1-.1-.2-.1zM148.7 113.1zM148.4 112.9zM148.4 112.9zM172.7 100.6zM185 85c0 .1 0 .1 0 0 .1.1.1.1 0 0 .1.1.1.1 0 0 .1 0 0 0 0 0zM183.1 79.7h.3c-.1 0-.1-.1-.2-.1-.2-.3-.3-.5-.4-.7 0 .1-.1.2-.2.2.1.1.2.2.2.4.1.1.1.2.2.3 0-.1.1-.1.1-.1zM181.1 77.9c.1.1.2.1.2.2V78s-.1-.1-.2-.1zM182.6 77.5s.1.1 0 0c.1.2.2.3.2.5v-.1c0-.2.1-.4.1-.6.1-.3.2-.7.1-1v-.1c-.1 0-.2-.1-.3-.2 0 0 0-.1-.1-.1s-.1-.1-.1-.2-.1-.2 0-.3c0 0-.1 0-.1-.1-.1-.1-.1-.2-.2-.3-.1 0-.2.1-.3.1 0 .1.1.2.1.2v.2c.2.2.3.4.4.6.1.2 0 .4-.1.5 0 .1.1.2.1.4v.1s.1.1.1.2c.1.1.1.2.1.2zM180.8 76.1c.2.2.4.3.5.5v-.1-.2c-.1-.1-.3-.2-.5-.2zM184.8 73.3z"/>
  <path fill="#FFF" d="M186.6 84.4c-.2-.4-.5-.9-.8-1.3-.3-.6-.7-1.1-1-1.7l-.1-.3c-.3-.6-.6-1.2-1.1-1.4h.2c.2-.1.3-.3.3-.5-.2-1.3.8-3.7 1.3-4.9v-.1c.1-.1.2-.2.2-.4.1-.1.1-.2.2-.4v-.6c0-.1-.1-.3-.2-.4l-.5-.3-30.5-22.5c0-.1 0-.1-.1-.2l.1-.1c.1-.2.1-.4 0-.6-.1-.1-.2-.2-.3-.4-.3-.5-.7-1-1.6-1.3-.3-.1-.6-.2-.9-.4-.6-.3-1.3-.6-2-.7v-.2h.7c.4 0 .9.1 1.3 0 .2 0 .3-.2.4-.3s0-.3-.1-.5l-.1-.2c-.1-.2-.3-.5-.4-.6-.1-.1-.2-.2-.3-.2.1-.1.1-.2.1-.4 0-.1-.1-.7-.1-.8 0-.2-.2-.4-.4-.4-.3 0-.7.1-1.1.2-.4.1-1.1.3-1.2.3 0 0 0-.2.1-.7.1-.2 0-.3-.1-.5-.1-.1-.3-.2-.4-.2-.7.1-1.5.3-2.1.5-.3.1-.5.2-.8.2-.9.2-1.6.7-2.2 1.3-.9-.1-1.6-.3-1.8-.4-.1-.1-.3-.2-.5-.4-.5-.5-1.2-1.1-1.9-1h-.1c-.1-.1-.3-.1-.4 0-.1.1-.3.1-.4.2-.1-.2-.1-.3-.2-.4-.1-.2-.2-.3-.3-.6 0-.1-.2-.2-.3-.3-.1-.1-.3 0-.4 0-.5.2-.8.6-1.1.9-.3.4-.6.7-1.1.8-.5.1-1 .4-1.5.7-1 .6-1.5.8-1.9.4l-.1-.1c.1-.4 0-.6-.2-.8-.4-.4-1-.1-1.6.2l-.6.3-.2.1c-.2.1-.6.3-.9.3.2-.1.4-.3.5-.4.2-.2.4-.3.5-.4.3-.3.6-.7.9-1 .6-.7 1.3-1.5 2.1-1.8.7-.3 1.5-.7 2.1-1.1l.5-.3c.2-.1.3-.4.2-.6s-.3-.4-.5-.4h-1.1c-.1 0-.1 0-.2-.1-.2-.2-.5-.3-1.2-.2h-.3c-.1 0-.3-.2-.5-.2-.3-.1-.4-.2-.5-.2-.3 0-.6.2-.8.3-.2.1-.5.3-.7.3-.3.1-.3 0-.6-.1l-.3-.3c-.7-.6-.8-.7-1-.8-.4 0-.7.1-.9.3-.1-.2-.2-.4-.4-.5 0-.1-.1-.2-.2-.3-.8-.6-1.6-.5-2.2-.3-.2 0-.4.1-.5.1-.6 0-.9-.1-1.4-.2-.2-.1-.5-.2-.8-.2l-.3-.1c-.5-.1-.5-.1-.7-.7-.1-.2-.1-.4-.2-.7-.1-.6-.3-1.7-1.6-1.5-.3 0-.4.2-.4.5v.5c0 .2.1.6 0 .8-.4 0-1.4 0-1.9-.1h-.6c-1.9 0-3.8-.1-5.7-.1-3.6-.1-7.4-.3-12-.6-.2 0-1.6-.1-2.9-.2l-2-.2h-.2C75.7 40 59.5 59.6 59.5 83c0 3.5.5 7.7 1.3 11.7 0 .1.1.2.1.2l19.2 20.2s.1.1.2.1c.2.1.4.2.6.2.1.4.2.7.3 1.1.6 1.4 1.9 2.2 3.1 3l.6.4c.8.5 1.1.7 1.3.8.8.1 1.2-.2 1.5-.5.2-.2.3-.3.5-.4.2-.1.4-.3.3-.5-.1-.7.5-1.4 1.1-1.7.4-.2.9-.1 1.5.1.5.1 1.2.3 1.8.2.1.1.2.1.3.1h.1c0 .1.1.2.1.3 0 .1.1.1.1.2 0 .2.2.3.4.4 0 .1.1.1.1.2.1.1.2.1.3.1.1.1.2.1.3.2.1.4.4.8.8 1.2.2.2.5.5.5.7.1.1.1.3.2.5.2.6.4 1.3.9 1.8 0 .8.8 2 2.1 3.6l.3.3.4.4c.1.1.2.1.3.3v.8c.1.6.2 1.6.9 1.9h.1c0 .3.1.6.2.7v.3c.1.7.9 1.4 2.3 2 1 .5 1.9.7 3.1.9.3.1.6.3 1 .5s.8.5 1.2.5c.2 0 .4-.2.5-.4 0 0 .1 0 .1-.1.2-.1.7-.3.7-1.1 0-.2-.2-.4-.3-.4h-.1c-.2-.2-.3-.3-.2-.6 0-.2-.1-.4-.3-.5l-.1-.1v-.3l-.3-1.2c.1-.2.1-.4 0-.6-.1-.1 0-.3.1-.7.1-.2.2-.4.2-.7v-.1c.2-.2.3-.3.4-.6.2-.4.2-.9.1-1.3.1 0 .1 0 .2-.1.4-.3.8-.7.9-1.2h.1c.5-.2.8-.5.9-.9.5.1 1-.2 1.3-.5.2-.1.2-.3.2-.5v-.1c.1.1.3.1.4 0 .1 0 .3-.1.5-.1h.1c.1.1.3.1.5 0l.1-.1c.1-.1.2-.1.2-.3.1-.1.6-.3.9-.4.8-.3 1.8-.6 2.1-1.3.1-.2.1-.4.1-.6.2-.1.3-.2.4-.3.1-.1.3-.2.4-.2.1 0 .2 0 .3-.1 1.3-.9 2.5-1.4 3.2-1.3.2 0 .3-.1.4-.2.2 0 .5-.1.7-.1.2 0 .4-.1.5-.1.7 0 1.4.2 2.1.4 1.2.4 2.5.8 3.6 0 .1-.1.2-.2.2-.3h.4s.1 0 .1-.1c0 .1.1.3.2.4l.1.1c.1.3.3.4.6.4.1 0 .2 0 .3-.1l.1.1c-.1.1-.1.1-.1.2s0 .3.1.4c.3.5.9.7 1.4.8.1.1.2.1.3.1.1 0 .2 0 .3.1h.2c.1.1.2.1.3.1.3 0 .7-.1.9-.2.1-.1.2-.2.2-.3v-.1l.1-.1c.1.1.1.1.2.1h.2v.1c0 .2.1.3.2.4.1.1.3.1.5.1.7-.2.9-.7.9-1 .1 0 .1-.1.2-.2.1.1.2.1.3.1.2 0 .5.1.7.1.1 0 .3.1.4.1.1.1.1.2.2.3v.1c0 .1-.1.2-.1.2-.1.2 0 .5.2.7.2.1.5 0 .7-.2.1-.1.1-.2.2-.3.1.1.3.2.5.2s.4-.2.4-.4c0 0 0-.1.1-.1s.1-.1.2-.2.1-.2.2-.3c.1-.1.1-.2.1-.3v-.1c0-.2-.2-.4-.5-.5h-.1c0-.1-.1-.2-.1-.2s0-.1-.1-.1c-.1-.2-.3-.3-.5-.2h-.1c-.1-.1-.3-.2-.4-.1h-.3c.1 0 .2-.1.3-.3 0-.1.1-.2 0-.3 0 0 .1 0 .1-.1.1 0 .1 0 .2-.1s.2-.3.2-.4v-.2c0-.1 0-.3-.1-.4l-.1-.1v-.1c0-.1.1-.2 0-.3 0-.2-.1-.3-.3-.4.1-.1.1-.2.1-.2h.1c.5-.2 1-.3 1.5-.5.2 0 .3 0 .5.1.3 0 .7.1 1 .1.2 0 .4-.1.5-.1h.1l.2.1c.1.1.2.1.3.1.1.3.3.4.6.4h.3c.4 0 .9-.1 1.3-.4h.2c.3 0 .7-.1.9-.3l1.8-.3c.4-.1.7-.2 1.1-.2 1.1.2 1.9.4 2.8.8h.2l.2.2c0 .1.1.1.2.2.1 0 .2.1.2.1.1 0 .1.1.2.1 0 .4.1.7.3.9.2.1.4.3.9.3.1.1.3.1.4.1.3 0 .4-.2.4-.2.1 0 .2-.1.2-.2h.1c.2.1.3.1.5 0s.3-.2.5-.4c.3-.2.6-.5.8-.5.2 0 .3-.1.4-.2l.1-.2s0-.1.1-.1l.1-.1c.1-.1.1-.2.1-.3h.2c.6-.2 1.4.5 2 1l.7.7c.7.8 1.5 1.8 2.6 1.8.1.2.2.3.3.5.1.1.1.2.2.3v.3c.2.4.2 1.2 0 1.8v.2c-.1.3-.1.6-.1.8 0 .3 0 .5-.1.8v.2c0 .5.3.9.7 1.3 0 0 .1 0 .1.1s-.1.2 0 .3c0 .1.1.2.1.3 0 0 0 .1.1.1l.5.7c.1.1.1.1.1.2 0 0 .1.1.1.2.2.4.4.8.8 1.2v.1s0 .2.1.4v.2c.1.2.1.3.3.5 0 .1 0 .1.1.2.1.2.2.3.4.5 0 0 .1 0 .1.1.2.1.4.1.6.1.2 0 .3 0 .4-.2l.3 1.1c0 .1.1.2.3.3 0 .2.1.5.3.6.2.1.4.1.6.2.3.1.6.1.8.3.1.1.3.4.3.5.1.2.2.4.3.4l.2.2c-.3.8.2 1.1.3 1.2.5.3 1.5.1 2.1-.1-.2.2-.1.5.1.7.2.2.5.1.7-.1.2-.2.4-.5.6-.7l.2-.3s0-.1.1-.1c0-.1.1-.2.1-.4.1-.2.1-.3.2-.4.1-.2.1-.4 0-.5 0-.1.1-.2.1-.4s-.1-.3-.2-.4c0-.1.1-.2.1-.4.2 0 .4-.2.4-.5v-.6c.1-1.9.1-3.6-.5-4.5 0-.4-.2-.8-.5-1.1-.3-.6-.6-1.2-1-1.8-.1-.3-.3-.6-.5-.9 0 0 0-.1-.1-.1v-.4c-.2-.4-.2-.8-.3-1.2 0-.3-.1-.6-.2-1-.3-.9-1-1.8-1.8-2.7-.4-.5-.9-1.1-1.1-1.5-.4-.7-.7-1.6-1-2.5-.1-.4-.3-.9-.4-1.3v-.1c0-.6-.2-.9-.4-1.3v-.1-.1s0-.1.1-.1c.1-.1.1-.2.1-.3 0-.1.1-.2.1-.3v-.3c.4-.4.4-.7.3-.9 0-.1-.1-.2-.2-.3v-.2c-.1-.2 0-.4 0-.6 0-.1.1-.3.1-.5l.3-.3.2-.2c.1-.1.1-.2.2-.3.2-.1.3-.2.4-.4v-.1c.1-.1.2-.2.2-.4v-.2c.2-.2.3-.4.3-.6.5-.2.8-.5.9-1.1v-.1c.2 0 .4-.1.5-.3 0 0 0-.1.1-.1.3-.1.5-.2.6-.4.3-.1.4-.3.5-.5l.1-.1c.3-.2.6-.6.9-1 .1-.1.1-.2.1-.3h.1c.2-.1.5-.2.6-.6.1-.1.2-.2.2-.3.2-.1.3-.3.2-.5v-.1-.1c-.1-.9.6-2.2 1.4-2.6.1-.1.2-.1.3-.3.1-.1.2-.2.3-.2.4.1.9 0 1.3-.2.3 0 .5-.2.5-.4 0-.3.1-.5.1-.7 0-.1 0-.1.1-.2V94v-.2c.2-.7.5-1.1 1-1.4.1-.1.2-.2.2-.3V92c.2-.1.3-.2.4-.4.1 0 .2 0 .2-.1.3-.2.6-.4 1-.4h.5c.1 0 .2-.1.2-.2.4-.1.6-.5.6-.9.2-.1.3-.3.3-.6 0-.4-.3-.7-.4-.8-.1-.1-.2-.1-.4-.1-.1 0-.1-.1-.2-.1v-.2c.1 0 .2-.1.3-.1h.4c.2-.1.4-.2.6-.4.1 0 .2-.1.2-.2 0 0 .1-.1.1-.2s.1-.3.1-.4c.1 0 .2-.1.3-.1.3-.3.4-.7.4-1.1.1 0 .3 0 .4-.1 0-.7.1-.9-.1-1.2zM148 46.7c0 .1 0 .2-.1.3-.1.3-.2.7 0 1.1-.3.2-.4.5-.5.7-.2-.1-.4-.1-.6 0-.4.2-1.2 1.3-1.3 1.4 0 .1-.1.2-.2.3-.4.5-.6.9-.7 1.2 0 0-.6 4.3.1 6-.6.7-1.1 1.4-1.5 2.3-.6-.4-1.2-.7-2-.8-.1-.3-.2-.5-.1-.8.2-1 .3-1.7.3-2.7 0-.2.1-.7.3-1.2.4-1.6.7-2.7.2-3.3-.1-.1-.4-.3-.9-.2.1-.2.2-.3.3-.5.4-.7.9-1.5 1.2-2.4.2 0 .4 0 .5-.2l.1-.1c0 .1.1.2.2.3.1.2.4.3.6.2.2-.1.4-.3.3-.5 0-.2.3-.7.8-1 .2-.1.4-.2.5-.1.1.1.3.1.4 0 .2-.1.5-.3.7-.4.3-.2.6-.4.9-.5.2 0 .5.2.8.3h.1c-.3.2-.4.4-.4.6zM149.8 45.8zM127.3 43.8z"/>
  <path fill="#193B80" d="M31.6 86.4c-.7-.3-3.2-.6-3.3-1.2-.1-.6.6-1.4.5-2-.1-.6-1-.4-.5-1.3v.2h.1c-.5-1.7-3.1-5-2.1-6.5.3.1.4 0 .6-.2.1-1.2-.5-.9-1.1-1.7-.5-.7.1-1.7-.3-2.2.1-.5.2-1 .5-1.4-.4-.3-.9-.9-1.1-1.4-.1.1-.2.1-.2.3l-.2-.1c.3-.4.4-.6.4-1l.3.9c-.1-.5-.2-1-.4-1.2.2-1-.9-1.9-1.1-2.9-.2-1 .4-2 .6-3.1.4-2.2-1.6-3.5.2-5.4 0 0 1.6-3.7 1.7-5.3.2-1.9.1-4.1 1.7-5.5v.2c.2-.2.2-.3.4-.4 0 0 .1.2.2.3-.1-.2 0-.2-.1-.4-.1.1-.4.2-.5.3.4-.4.7-1 1.1-1.4-.1.1.1.1.1.2-.1 0-.1-.2-.1-.2-.1.1-.2.2-.3.2.5-.7 1-2.7 1.6-2.8-.1-.1.1-.2-.2-.1.2-.3.4-.6.5-.6v-.1c-.1-.1-.1-.1-.2-.1.3-1 1-2.3 1.5-3.1l.3-.6c0 .2.1-.3.4-.5 0 0-.1 0-.1-.1-.1 0-.1.1-.2.2.1-.7.9-1.6.6-2.4.1.2.3.4.4.7 0-.1 0-.2.1-.1 0-.1-.1-.2-.2-.3.2.1.8.4 1.3.5-.1 0-.1-.1 0-.2 0 .1.1.2.1.2.2.1.4.1.5.1-.5-.2-1.1-.7-1.4-.9-.2-.1-.7-.2-.7-.2h-.1c.2-.5.4-1.1.6-1.6-.1.4-.2.9-.1 1.2 0 0 .1-.2.2-.2l.1.2c-.1-.4 0-.5.1-1 .1 0 .1.2.1.1.3-.1.1-.4.5-.2-.2-.3-.3-.3-.5-.4v.1c-.2-.3-.2-.4-.1-.9 0 .2.1.2.1.4.2-.2.1-.2.7-.3-.1-.1-.2-.1-.4-.2h.1c-.3-.4-.5-.5-.6 0 0 0-.2-.1-.2 0 .3-.6.4-1.5.4-1.8-.1-1.6.5-3.3.5-4.6 1.1.7 1.8 1.7 3 2.1h-.1c.5.1.5.2 1 .1 0 0-.2 0-.2.1.1.2.3.4.3.6.3.1.2-.4.3.3.2-.3.3-.3.5-.5-.3.7.1 1.1-.6 1.7.3-.2.6-.3.7-.2.1-.2.1-.4.1-.6.3.6.1 1.2-.4.8 0 .2-.1.5 0 .7-.1-.1 0-.2-.1-.4-.1.3-.1.3-.2.5.1 0 .4-.1.4-.1-.1.5-.3.9-.5 1.3 0-.4-.2-.1 0-.6-.3.3-.6.5-.7.8.1-.3.1-.6.2-.9-.3.4-.7.7-1.1.9 0 0 .2-.1.2 0l-.2.1c.2 0 .4-.2.5-.2-.1.1-.3.2-.3.3.1.1.2-.1.3-.1 0 .2-.1.2 0 .4.1-.2.2-.3.3-.4 0 .1 0 .1-.1.1.1.1.1-.1.2-.1.1.1.1.3.1.4.3-.3.6-.3.8-.8.1.1.1.2.2.3h.1c.3-.2.5-.8.5-1.3 0 0 .5-1.3 1.1-1.6-.2-.3-.3-.6-.3-1h.1c.1-.3 0-.7-.1-.9h-.3V26h.2c0 .1 0 .3.1.3s.1-.2.2.1c0-.2.1-.3 0-.6.1 0 .2.3.3.2.1-.4.3-1.1-.3-.8 0-.4 0-.8-.1-1.1 1.1-.3 4.2 1.1 5.6 1.5 1.7.5 5.6 1.5 7.3 2-13.4 15-21.8 34.2-21.8 56-.1.5-.1 1.6 0 2.8zm153.8-2.5c0-.1.1-.1 0 0-.5-.8-.8-2.1-1.4-2.8 0 .3.1.5.1.8.1 0 0-.2.1-.2l.1.3c-.1-.1-.4-.2-.6-.3.2.4.3.6.6.9-.1-.2-.1-.1 0-.3.2.5.5.9.7 1.4-.3-.2-.6-.7-.9-.9.2.2.3.4.4.6-.4-.1-.9-.3-1.1-.5-.1-.1-.1.1-.1.1.3.1.5.3.7.4-.4.1-.3.3-.8 0l.4.4c-.3-.1-.7-.1-1-.3.2.1.4.3.6.4-.9 1-1.3.3-1.6-.7 0 .5.3 1.2.3 1.6.6-.2 1.1-.4 1.6-.2.1-.3.2-.4.7-.4 0 .1-.1 0-.1.2l.1-.1c-.2.4 0 .4-.2.7.2.2.2.2.4.3-.1.2-.2 0-.3.1.1.1.3.1.4.1-.1-.6-.2-1.3.4-1.1 0-.1-.1-.1-.2-.2h.3c0-.1-.1 0-.2 0V84c.7.5.8 1.3.4 1.8-.1-.1 0-.1-.2-.3-.1.4-.2.7-.3 1 0 0 0-.1-.1-.1-.1.5-.6.7-1 .3v.3s-.1-.1-.2-.1c0-.2 0-.2-.1-.4 0 .2-.1.3-.1.4-.2-.1-.4-.3-.5-.5l.3-.2c-.3 0-.4.1-.6.2.2.2.2.3.3.5-.4 0-1.1.1-1.7-.2.4.4 2.6.5 1.9.9l.2.1c-.2.1-.3.2-.5.3h.3c.1 1-1.1.9-1.7.4.6 1 1.4.6 2 .6 0-.1-.1-.1-.1-.2.1-.1.2 0 .3 0v-.5c0 .2.1.3.1.6.3-.3.2-.1.3-.4.4.3.2.5-.1.7-.1.6-.3.9-.7.4v.5c-.4-.4-.2-.2-.3-.1l.1.1c-.5 0-.9.2-1.3.5 0-.1-.1-.2-.1-.3 0 .4-.3.8-.9.9 0-.5.1-.4-.2-.7.1.5.1.3.1.6.2.1.2.2.3.3-.8.5-1.1 1.2-1.3 1.9 0-.1.1-.1.1-.1 0 .1-.1.2-.1.4-.1.3-.1.5-.1.8 0-.2 0-.4-.1-.6.1.8-.7 1-1.4.8-.1.1-.4.3-.6.5V95c-.1 0-.1.1-.2.1 0 0 .1 0 .1.1-1 .5-1.9 2-1.7 3.1-.3-.4-.4-.4-.2-.9-.4.5-.3.9.2 1.1-.2.1-.1.1-.3.1-.1.1.1.1 0 .2-.1-.1-.1-.1-.3-.1.4.8-.8.4-.8 1.2l.1-.1c-.3.4-.9 1.3-1.1.5 0 0-.1.2-.2.1.2.3-.1.2-.1.2.1.1.3.2.4.2-.2.3-.2.4-.5.5-.1.3-.3.4-.8.3.2.5.1.5-.3.4-.3.1-.1.3-.7 0l.1.2c-.3 0-.4 0-.5.2h.7c-.1 0-.3.1-.4.1.2.1.3.1.3.1s-.1.1-.1.3c.1-.1.3-.2.4-.3-.1.4-.2.5-.7.7v-.5l-.2-.2c0 .2 0 .5.1.6-.3-.4-.5-.7-.8-.9.3.7 1.1 1.3.4 1.8 0-.2 0-.4.1-.6-.2.4-.3.8-.1 1.1-.5.3-.2.1-.3.5-.3 0-.4.2-.7.1.2.1.1.1-.1.2.1 0 .3 0 .4.1-.4.3-.2.5-.8.4.4.4-.3 1.1 0 1.8h-.6c.8.1 1.1.4.4.9-.1-.1 0-.2-.1-.3-.1.1-.2.5-.2.4 0 0 .2.1.2.2 0-.1.1-.2.1-.2v.4c-.1-.1-.2-.2-.4-.2.3.5.1.1 0 .5.1.1.2 0 .3 0-.2.3-.1.3-.1.5h-.2c.3.5.5.7.5 1.4-.1-.1-.2-.3-.2-.4.6 1.3.9 3.1 1.8 4.4.7 1.3 2.4 2.8 2.8 4.2.2.7.1 1.4.5 2.3-.5-.8-.5-1.7-.8-2.4-.1.5-.1.9.1 1.4-.3-.5-.7-1.5-.1-1.5 0-.1 0-.1-.1-.2.1.1-.7-.4-.9-.6.7 2.3 2.2 4.3 3.3 6.5 0 0-.1 0-.1-.1.4.2.7.6.6 1.1.8.8.6 3.7.5 4.9 0-.1-.1-.4-.1-.5-.4 1-.7 2.2-.7 3.1.2-.2.3-.5.5-.7-.2.3-.2.6-.3.9-.3.4-.5.7-.8 1 .3-.3.5-.8.4-.9.1-.1.1-.2.2-.3-.1 0-.2 0-.2-.1.1 0 .1.1.1.2-.1-.1-.2-.1-.2-.2l-.1-.1c-.1.1-.4.3-.4.3-.3.3-2.6 1-2-.3.1.2.5.4.5.5.5-.3-.5-.7-.9-1.1-.1-.1-.4-.8-.7-1-.6-.5-1.1-.4-1.6-.6.3 0 .1 0 .3-.1-.3-.2-.2-.2-.5-.6v.2c-.1-.4-.2-.7-.3-1.1 0-.1 0-.3-.2-.6-.1.1-.2.1-.5.2v-.2c.2-.2.6-.6.8-.9-.4.4-.6 1.1-1 .8-.5-.4-.2-1.6.1-1.9-.4.4-.8.4-1.1.1.3.3.3.5.5.9-.3 0-.6-.2-.9-.6l.1.2c-.3-.3-.5-.8-.7-1.2l.1.1c-.1-.2-.1-.2-.3-.5l-.4-.7s.1-.1 0-.2c-.1.1-.1 0-.1 0h.3l-.2-.1c.1-.1.2-.1.2-.2l-.2.1c.3-.5.9-1.1.5-1.8 0 .1-.1.3-.1.5h-.2c-.1-.5-.3-.7-.7-.8 0 .3.1.2.2.3 0 .1-.3.1-.3.2.2 0 .4.1.6.1-.1.7-.3 1.1-.9.4.1.2.3.5.4.7-.3-.3-.5-.6-.5-.9.2-.7 0-1.2.2-1.9.3-.7.3-1.7 0-2.2.1 0 .1.1.2.1-.2-.7-.6-1-.8-1.6-1.3.4-2.3-1.5-3.2-2.3-.7-.6-1.6-1.3-2.4-1.1-.1 0-.1 0-.2.1-.3.1-.5.3-.4.5v.1h-.3c.1.1.2.1.2.2s-.1.1-.1.2c-.5 0-1.1.6-1.6 1 0-.1.1-.2.1-.3-.2.2-.8.5-1.3.6h.5c-.2.1-.1.3-.5 0-.5.1-.9 0-.8-.7.3 1.4.5 0-.7-.6.1.1.2.1.3.2-.3-.2-.5-.4-.8-.6.2.1.5.2.8.3-.1-.1-.2-.4-.1-.4-.4.1-.4 0-.9-.2.2-.2.3-.3.6-.4l-.1-.2c-.2.2-.3.2-.5.4 0 0-.1-.3-.2-.3s-.3.3-.4.3c.3.2.3.3.6.5-.1 0-.1-.1 0 0-1-.5-2-.8-3.1-.9.3 0 .6-.1.7-.2.1 0 .1.1.3.2 0 0 0-.1.1-.1 0 0-.1 0-.1-.1.2 0 .4.1.6.1 0-.2-.1-.2-.1-.4-.3 0-.7 0-1.1.2v-.2c-.1.1-.2.1-.2 0-.1.3-.4.5-.8.6.1 0 .3-.1.4-.1h.4c-.9.2-1.9.5-2.9.6.5-.1 1-.3 1.5-.4-.4.1-.8.1-1.2.2.3-.2.8-.4 1.1-.4-.5-.4-.2-.2-.3-.5 0 0-.2-.1-.3-.2 0 .2-.1.5-.2.7-.1-.3-.2-.3-.4-.6.2.7-.4 1.4-1.2 1.4.1-.1.2-.1.3-.2.1-.1.3-.4.2-.6-.3.4-.4.6-.8.4.1.2-.1.2.2.2-.4.5-1.1.4-1.7.5.3-.1.6-.2 1-.3l-.3-.6c-.6.1-.3-1-.8-1.4-.1.5-.3 1.2-.3 1.8-.5-.4-.7-.1-1.1-.1-.6 0-1.3-.2-2.1-.2h.5c-.5.1-1 .3-1.5.5-.1-.3-.2 0-.3-.1 0 .2-.1.4-.3.8-.1 0-.5.1-.6.1h.1c-.9 0-1.9-1.2-2.7-.4-1.5 1.4 1.7.9 2.2.4 0 .1 0 .2-.1.3 0 0 .1 0 .1.1 0-.1.2-.2.2-.2s-.1.1-.1 0c-.1-.1.3.1.3.1-.2.2-.2.3-.3.5-.6.1-.4.2.1.3.3.6.7-.1.8-.6.3.1.2 0 .4.1l-.3.3c.1.1.2 0 .3.1l-.2.1.1.1c.1 0 .1-.1.2-.1.1.1 0 .1-.1.2h.2v.4c-.2-.1-.2 0-.3.1-.1-.1-.1-.2-.3-.3-.3.4-.5.5-.1.7 0 0 0 .1.1.2-.3-.1-.6-.2-.8-.3.2.2.1.2.3.3h-.5c.3.4.9.6.9.9.2 0 .5.1.8 0 0 .1-.2 0-.2.1.4 0 .4.1.7 0 .1.3.2.2.2.5.3.1.3.1.5.1-.1 0-.1.1 0 .1-.2.1-.1 0-.2 0 0-.1-.2.2-.2.2s.3-.1.3 0c0 0-.1.2-.1.3 0-.1-.1-.2-.2-.1 0 .1.1.1.1.2 0 0-.2.3-.2.4-.1-.2-.3-.3-.4-.5-.1.3-.4.5-.6.8.2-.4.3-.7.5-1 0 0-.1.1-.1.2l-.1-.2c-.1.3-.1.2-.2.4-.1-.2-.3-.6-.3-.7-.4.1-.8-.2-1.4-.2.2-.2.2-.4.1-.3 0-.1-.1-.3-.2-.4h-.1c-.2.2-.9-.2-1.1-.1-.1 0-.1-.2-.2-.2-.1.2-.1.1-.1.2.5.1.7.3.7.8l-.1-.1c0 .1.2.2.2.3-.5.1.1.6-.8.9 0-.2-.1-.6-.1-.8l-.1.2c-.1 0-.2-.3-.2-.3-.1 0-.2.3-.2.3-.1-.2-.1-.3-.2-.5-.4.2-.7.2-.6.6l-.1-.1c0 .1 0 .3-.1.4-.1 0-.4.1-.6.1 0-.1.2 0 .1-.2-.4.1-.4 0-.9 0v-.1c-.4.1-1 0-1.3-.5 0 0 .3-.1.4-.2.1.3.2.2.3.5l.2-.1c-.3-.4-.6-1-.6-1.5 0 .2-.1.4-.1.6-.4-.2-.3-.1-.5-.3-.1 0-.4.1-.5.1-.1-.6 0-.2-.3-.4 0-.6-.3-.6-.8-.3.1-.2 0-.2.1-.3-.3-.3-.8-.1-1.2.2 0 0 .1-.1 0-.1 0 .1-.1.1-.2 0 .3.4 0 .1.4.2.1.3-.2.2.3.3-1.4 1.1-3.6-.6-5.5-.5-.6 0-2.2.6-1.3-.3.8-.8-1.4-.5-.2.6-1.1 0-2.6.8-3.5 1.4.2-.4.8-.7 1.1-.9-.3.1-.8.1-1.2.1 1.3-1.2-.8-.6-1-.9.3.4 0 .8.6 1.1-.2.3-.2 0-.1.3v-.1c.1.1.2.2.4.3h-.1c-.4.1-.8.6-1.3.7.7 1.7-2.8 1.7-3 2.5l-.1.1v-.1c-.3.1-.6.2-.9.2.1-.1.2-.1.3-.2 0-.1-.3 0-.3 0 0-.1.1-.2.1-.3-.4.2-.6.2-.8-.1 0 .2 0 .1.1.4-.2.1-.3.1-.5.2.1-.1.2 0 .2-.2-.2-.1-.5-.2-.8-.4.1.5.2.7.6 1l-.2.1c.2 0 .4.2.6.2-.7.5-1.2.5-1.5-.2h-.1c0 .1.1.1.2.3-.1 0-.2-.1-.3 0 .4.5.2 1-.4 1.2.1-.2.1-.4.1-.6-.1.3-.3.4-.4.5v-.3c-.4.1-.6.2-.8.6.2 0 .2.2.3.3.1-.2.3-.3.4-.5 0 .6-.3.9-.8 1.3-.2-.3-.1 0-.5-.2l.1-.1h-.7c.2.1.3.1.5.1.4.5.5 2.3-.6 2.4.2-.1.2-.1.3-.2-.1-.1-.2 0-.1-.2-.3.5-.6.4-.9 0 .1.2.1.3.2.4-.2 0-.2.1-.4 0 .4.3.8.3 1.3.1-.1.6-.7 1.3-.2 1.8l-.2-.2c.1.5.3 1.1.5 1.7h-.2c.2.3.3.6.5.7 0 .4.1.8.5 1.1-.3.5-.1.5.2.1.1.7-.6.4-.8.9-.6-.1-1.3-.8-2.1-1-1.2-.2-2.1-.4-3-.9-1-.4-2.7-1.4-1.7-2.2-.1 0-.2 0-.3.2-.2-.4-.3-.7 0-1-.9.4-1-.9-1.1-1.5 0-.2.1-.7 0-.9-.3-.5-.5-.4-.8-.8-.6-.8-2.5-2.9-2.2-3.8-.6-.5-.9-1.6-1.1-2.3-.3-.7-2-1.9-.9-2.1v-.6c-.1.2-.2.3-.3.5-.1 0 0-.2 0-.1-.4.2-.3.2-.7-.1l-.1.1c-.2-.4.1-.4-.4-.3-.1-.3-.3-.4-.3-.8-.2-.1-.3 0-.5 0 0-.1.1-.2 0-.2-1.2.7-2.6-.7-3.8 0-.7.4-1.5 1.2-1.4 2.2-.8.3-.9 1-1.8.8-.2 0-1-.6-1.4-.9-1.2-.8-2.6-1.6-3.2-3-.2-.4-.3-.9-.4-1.3l-.9-.3-19.1-20C60.5 91 60 86.8 60 83c0-22.6 15.7-42.4 32-49.7.3 0 4.6.4 4.9.4 4 .3 8 .5 12 .6 1.9.1 3.8.1 5.7.1.4 0 2.6.3 2.9 0 .2-.2 0-1.3 0-1.6 1.3-.1.9 1.1 1.3 2 .4.8.4.7 1.3 1 1 .3 1.3.5 2.3.5.7 0 1.5-.5 2.4.2-.1.1-.2.1-.3.2.9-.1.5.9 1 1 .3.1.3-.5 1-.5.1 0 1 1 1.1 1 .4.1.5.2 1 .1.6-.1 1.1-.6 1.5-.6.1 0 .7.4.9.4 0 0 .5-.1.4-.1.8-.2.7.2 1.2.3.4.1.8 0 1.2 0-.7.4-1.6 1-2.5 1.3-1.4.5-2.2 2-3.2 3-.2.2-1.2.8-1.3 1.1-.3 1.1 1.3.4 1.9.1 1.1-.5 2.3-1.5 1.4.7.5-.3.5-.1.6-.4 1.2 1.2 2.6-.7 3.9-.9 1.1-.2 1.4-1.3 2.3-1.8.2.7.8 1.1.7 2 .2-.4.5-.7.9-.9-.2.2-.3.4-.4.6 1-1.6 2.1.4 2.8.8.5.3 1.8.5 2.3.5.5-.7 1.2-1.1 2.1-1.3.8-.2 1.9-.6 2.8-.7-.9 2.4 1.9.8 2.7.8 0 .1.1.6.1.8v.1l-.3-.1c-.1.6.1.8.7.8.1.1.4.6.5.7-1 .2-2.8-.5-2.4.7-.6 0-1.2-.8-2-.8-.7 0-1.2.7-1.7.9-.8-.4-2 .9-2 1.6-.4-.6 0-.5.1-1 .1-.6-1 .5-1.2.7 0-.3-.2-.6-.1-1-.4 1.6-1.6 3.5-2.2 4.7-.1.2-.7 1.3-.4 1.5.4.2 1.1-1.3 1.3-1.4 1.4-.4-.2 3.3-.1 4.2 0 .9-.1 1.6-.3 2.6-.1.5.1.9.3 1.4 1 .1 1.8.5 2.5 1.2.4-1.1 1.1-2.1 1.9-3-.8-.9-.3-5.3-.2-6 0-.3.7-1 .8-1.3 0-.1.8-1 1.1-1.2-.2.6-.2 1.2 0 1.9 0-.4.2-.6.2-1v1c.9-1.5-.2-2.2 1.6-3.1-1.1-.1-.4-1-.5-1.5 1.2-.4 2.9.7 4 1.1 1 .4 1.1.8 1.7 1.5-1.1-.1-.2.3-.1.7v.2l30.7 22.6.5.3v0l-.1.1c0 .1.1.1 0 .2-.1-.1-.2-.1-.3 0 .4.2.3.5.1.6-.6 1.3-1.7 3.9-1.5 5.4-.3-.5-.4-.8-.3-1.3 0-.4.3-1.2.2-1.8h.3c-.1-.3.1-.2-.3-.4.1-.1.3-.2.3-.3-.3.1-.4.1-.7.3v-.3s-.1.1-.1 0c.1-.2.2-.4.4-.6-.1 0-.2.2-.3.2 0-.1.2-.2.2-.3-.2.1-.3.2-.5.2.1-.3 0-.3.3-.6 0-.1 0-.1-.1-.1h-.1c-.2.1-.4.2-.6.2-.2.1-.3.1-.5.2h-.1c-.2 0-.3.1-.5.1.1.2.2.5.3.7-.2-.3-.4-.3-.6-.6 0 .4-.1.1-.1.4-.2-.2-.4-.2-.6-.3h-1c.9.5 2.3.2 2.8 1.4-.1.1-.2-.1-.2-.1.1.5.1.6.2.9-.3 0-.3 0-.6-.2-.1.1.1.2-.1.2-.4-.6-1.8-1.8-2.5-1.8 1.3.2 1.8 2.2 3.3 2-.1.1-.2.1-.3.2h.4c.1.3.2.5.1.9-.2-.2-.3-.2-.5-.4 0 .1 0 .1.1.2-.1 0 0 .4 0 .3.4.8-.9-.3-1.3-.7.4.8 1.9 1 1.8 1.6.7.7-.5.2-1.1 0 .2.6.8.5.7 1.2.3-.1.5-.1.8-.1-.1-.2-.1-.3-.2-.4 1.2-.4 1.4.3 1.9 1.4.5 1.1 1.2 2 1.8 3-.2-.2-.6-.5-.8-.7zm-38.5 30.2l-.1-.1.1.1zm7.7 1s-.2 0-.2-.1l-.1.1h.3zm26.5-35.5h-.1c-.2-.2-.3-.2-.5-.5-.2.4-.2.2-.6.3-.3-.1-.5-.1-.8 0 .5-.1 1.4.3 2 .2zm-5.8 45.2c-.4-.5-1-1.8-1.3-2.7.4.9.9 1.8 1.3 2.7m-7.1 4.2c.1.1.1 0 .4 0-.1 0-.3.1-.4 0m-.3-.3c.2.2.2.3.3.3l-.3-.3m0-.6c.3.2.3.4.5.8 0-.1-.4-.6-.5-.8m2.7 8.8c0-.2.1-.1.3-.2 0 0-.2.2-.3.2m-.1-.1s-.1.1-.3.2c.1-.1.2-.1.3-.2m.4-.1c.3-.2.2-.2.2-.3 0 0 .1 0 .2.1 0 .1 0 .2-.4.2m-3.3-8.8c.1.2-.1-.2-.1-.3.1.1.1.2.1.3m0 .2c.1.1.1.2.1.3.2.2 0-.2-.1-.3m8.4 4.3c0 .2 0-.3.1-.4 0 .1-.1.2-.1.4m-2.1 3c0-.1.3-.2.2-.1 0-.1-.1 0-.2.1m-.9.5s-.1 0-.1-.1c.4-.2.1 0 .1.1m-1.8.4c0 .1.1.2.1.2 0-.1-.1-.1-.1-.2m0 0s0-.1 0 0m.5-.4c.2.1.2.2.4.4 0 0-.4-.2-.4-.4"/>
  <path fill="#FFF" d="M87.1 49.4h4.8l-.1 1.1H88l-.3 2.5h3.5l-.1 1h-3.5l-.3 2.7h4l-.1 1.1h-5l.9-8.4zm8.9 4.1c-.1-.2-.2-.3-.4-.4-.1-.1-.3-.1-.6-.1-.2 0-.4.1-.6.2-.2.1-.3.3-.3.5s0 .3.1.4c.1.1.2.2.3.2.1.1.3.1.4.1.1 0 .3.1.4.1.2.1.4.1.5.2.2.1.3.2.4.3.1.1.2.3.2.5s.1.4 0 .7c0 .3-.1.6-.3.8-.1.2-.3.4-.5.5-.2.1-.4.2-.7.3-.2.1-.5.1-.7.1-.4 0-.8-.1-1.1-.2-.3-.1-.5-.4-.7-.8l.8-.7c.1.2.3.3.5.5.2.1.4.2.7.2.2 0 .5-.1.7-.2.2-.1.4-.3.4-.5s0-.3-.1-.4c-.1-.1-.2-.2-.3-.2-.1-.1-.2-.1-.4-.1-.1 0-.3-.1-.4-.1-.2-.1-.4-.1-.6-.2-.2-.1-.3-.2-.5-.3-.1-.1-.2-.3-.3-.4-.1-.2-.1-.4 0-.7 0-.3.1-.5.3-.8.1-.2.3-.4.5-.5.2-.1.4-.2.7-.3s.6-.2.8-.2c.3 0 .7.1.9.2.3.1.5.4.6.7l-.7.6zm5.3-.4h-1.4l-.3 2.5v.9c0 .1.1.2.2.3.1.1.2.1.4.1h.4c.1 0 .2-.1.3-.1l-.1 1c-.1 0-.1.1-.2.1s-.2 0-.2.1h-.4c-.4 0-.6-.1-.8-.2-.2-.1-.3-.3-.4-.4-.1-.2-.1-.4-.1-.6 0-.2 0-.4.1-.7l.4-2.9h-1.1l.1-.9h1.1l.2-1.6h1l-.2 1.6h1.4l-.4.8zm1.9 4.7c-.2 0-.3-.1-.5-.2-.1-.2-.2-.3-.1-.5 0-.2.1-.4.3-.5.2-.2.3-.2.5-.2s.3.1.5.2c.1.2.2.3.1.5 0 .2-.1.4-.3.5-.2.1-.3.2-.5.2zm7.9-7.1l-1.6 1.4-.5-.8 2.3-1.9h.9l-1 8.3h-1l.9-7zm6.6 3.8c-.3.1-.6.2-.9.2-.3 0-.5-.1-.8-.2-.3-.1-.5-.3-.7-.5-.2-.2-.3-.5-.4-.8-.1-.3-.1-.7-.1-1.2.1-.5.2-.9.4-1.2.2-.3.4-.6.7-.9.3-.2.6-.4.9-.5.3-.1.7-.2 1-.2s.7.1 1 .2c.3.1.5.3.7.5.2.2.3.5.4.8.1.3.1.7.1 1.1 0 .3-.1.5-.1.7-.1.2-.1.4-.2.6l-.3.6c-.1.2-.2.4-.4.6l-2.3 3.3h-1.2l2.2-3.1zM119 52v-.7c0-.2-.1-.4-.2-.5-.1-.2-.3-.3-.4-.4-.2-.1-.4-.1-.6-.1s-.5 0-.7.1-.4.2-.5.4c-.2.2-.3.3-.4.5-.1.2-.2.4-.2.7v.7c0 .2.1.4.3.5s.3.3.5.4c.2.1.4.1.6.1.2 0 .5 0 .7-.1.2-.1.4-.2.5-.4s.3-.3.4-.5c-.1-.2 0-.5 0-.7zm7-1.5h-3l-.3 2.1c.1 0 .1 0 .2-.1.1 0 .2 0 .3-.1h.5c.4 0 .7.1.9.2.3.1.5.3.7.6.2.2.3.5.4.9.1.3.1.7 0 1.1-.1.4-.2.8-.4 1.1-.2.3-.4.6-.7.9l-.9.6c-.3.1-.7.2-1.1.2-.5 0-.9-.1-1.3-.4-.4-.3-.6-.7-.7-1.2l1.1-.4c.1.4.2.7.4.8.2.2.5.3.8.3.2 0 .4 0 .6-.1.2-.1.4-.2.5-.3.2-.1.3-.3.4-.5.1-.2.2-.4.2-.7.1-.6 0-1.1-.3-1.4-.3-.3-.7-.5-1.2-.5h-.3c-.1 0-.3 0-.4.1-.1 0-.3.1-.4.1-.1.1-.3.1-.4.2l.6-4.4h4l-.2.9zm3.5 7.3c-.3 0-.6-.1-.9-.2-.3-.1-.5-.3-.7-.5-.2-.2-.3-.5-.4-.8-.1-.3-.1-.7-.1-1.1 0-.3.1-.5.2-.7.1-.2.2-.4.4-.6.1-.2.3-.3.5-.4l.6-.3c-.1 0-.3-.1-.4-.2-.1-.1-.2-.2-.3-.4-.1-.2-.2-.3-.2-.6v-.8c0-.3.1-.6.3-.9.1-.3.3-.5.6-.7.2-.2.5-.3.7-.4.3-.1.6-.1.9-.1.3 0 .6 0 .8.1.2.1.5.2.6.4.2.2.3.4.4.7.1.3.1.5.1.9 0 .3-.1.5-.2.8l-.3.6c-.1.2-.3.3-.4.4-.2.1-.3.2-.4.2.4.1.7.4.9.7.2.4.3.8.2 1.3 0 .4-.2.7-.3 1.1-.2.3-.4.6-.6.8-.2.2-.5.4-.8.5-.6.2-.9.2-1.2.2zm.1-.9c.2 0 .4 0 .6-.1.2-.1.3-.2.5-.3.1-.1.3-.3.4-.5.1-.2.2-.4.2-.6v-.7c0-.2-.1-.4-.2-.5-.1-.1-.3-.2-.4-.3-.2-.1-.3-.1-.5-.1s-.4 0-.6.1c-.2.1-.3.2-.5.3-.1.1-.3.3-.4.5-.1.2-.2.4-.2.6v.7c.1.2.1.4.3.5.1.1.3.2.4.3 0 0 .2.1.4.1zm-.5-5.4v.5c0 .2.1.3.2.4l.3.3c.1.1.3.1.5.1s.4 0 .5-.1c.2-.1.3-.2.4-.3.1-.1.2-.3.3-.4.1-.2.1-.3.1-.5 0-.4 0-.7-.2-.9-.2-.2-.5-.4-.8-.4-.2 0-.3 0-.5.1s-.3.2-.4.3c-.1.1-.2.3-.3.4 0 .1-.1.3-.1.5z"/>
  <path fill="#193B80" d="M217.6 51.3c-.2-2-1.4-3.5-3-4.2 2.2-3.7 2.9-6.8 2.5-10.2-.5-4.1-3.4-6.8-7.3-6.8-1.4 0-2.8.3-4.4 1-2.8 1.2-5.1 3.2-6.9 5.6l.2-3.1c.2-2.5-.7-4.1-1.5-4.9-1-1.1-2.5-1.7-4.1-1.7-.9 0-1.9.2-2.9.6-3 1.3-8.3 6.1-7.8 10.1 0 .2.1.4.1.5-14.5-22-39.6-36.7-68-36.7-45 0-81.6 36.6-81.6 81.6 0 3.5.2 6.9.7 10.3-.3.5-.6 1-.8 1.5-.8-.8-1.8-1.4-2.9-1.6-.3-.1-.5-.1-.8-.1-1.4 0-2.8.7-3.6 1.9-.1 0-.2.1-.2.1-2.5 1-5 1.3-7.7 1.7-3 .4-6.1.7-9.3 2.1-4.6 1.9-7.2 6.3-6.6 11.2.3 2.3 1.5 4.2 3.5 5.5.7.5 1.5.7 2.4.7.4 0 .8-.1 1.2-.2 1.2-.4 2.2-1.2 2.8-2.4.2-.4.7-1.1 2.9-2 1-.4 2.2-.8 3.5-1.3l-2 26.8c-.2 2.1 1.2 4.1 3.3 4.6.5.1 1.1.2 1.6.2 1.1 0 2.2-.2 3.3-.7 3.6-1.5 5.1-4.6 5.9-7.1l.9-2.5c.3.5.6.9.9 1.3 1.3 1.4 3.1 2.1 5.1 2.1 1.2 0 2.6-.3 4-.9 2.3-1 4.2-2.7 5.9-4.8.3.1.5.2.8.2 14.8 21.1 39.2 34.9 66.9 34.9 45 0 81.6-36.6 81.6-81.6 0-4.5-.4-9-1.1-13.3 1.9-1 3.6-2.7 5.1-4.5.8.3 1.7.4 2.7.4 1.5 0 3.2-.4 4.9-1.1 5.1-2.1 10.4-8.3 9.8-13.2zM34.4 83.1C34.4 38.9 70.3 3 114.5 3c28.6 0 53.8 15.1 67.9 37.7-2.8 1.2-5.1 3.3-7 5.9.2-.8.4-1.6.4-2.5v-.2c-.1-3.7-2.9-6.6-6.5-6.6-1 0-1.9.2-2.9.6-3.3 1.4-5.7 5-5.7 8.7 0 .7.1 1.4.3 2.1-.1-.1-.3-.1-.4-.2-10.5-14-27.3-23.1-46.1-23.1-31.8 0-57.7 25.9-57.7 57.7 0 3.5.3 7 1 10.4-.2.2-.4.3-.6.5-1.4 0-3 .4-4.6 1.1-2.7 1.1-5.1 3.2-6.9 5.8l.6-7.1c.2-2.1-1.2-4.1-3.3-4.6-.6-.2-1.1-.2-1.7-.2-1.1 0-2.2.2-3.3.7-1.3.5-2.3 1.3-3.1 2.2-.3-2.9-.5-5.8-.5-8.8zm136.4 0c0 31-25.2 56.2-56.2 56.2-16.6 0-31.5-7.2-41.8-18.7.8-.1 1.6-.3 2.4-.7 1.9-.8 4.1-2.5 5.7-4.6.8.3 1.6.4 2.5.4 1.2 0 2.4-.3 3.7-.8 2.7-1.1 4.9-3.2 6.5-5.2.9.3 1.8.4 2.8.4 1.4 0 2.8-.3 4.3-.9 3.2-1.4 6.2-4.3 8.5-8 .6.9 1.5 1.5 2.6 1.8.5.1 1.1.2 1.7.2 1.1 0 2.2-.2 3.3-.7 2.9-1.2 5-3.6 5.7-6.4 1.2.9 2.7 1.4 4.3 1.4 1.2 0 2.5-.3 3.9-.8 2.1-.9 4.6-2.9 6.3-5.5 1.2.7 2.4.9 3.3.9.9 0 1.8-.2 2.6-.5 2.1-.9 3.9-2.8 5.3-5.2.9.6 2 1 3.4 1 .8 0 1.6-.2 2.4-.5 2.8-1.2 5.5-4.4 7.6-8.7l.3.3c1.3 1.4 3.1 2.1 5.1 2.1 1.2 0 2.4-.3 3.7-.8.1 0 .1-.1.2-.1-.2 1.4-.1 2.4-.1 3.4zm-12.4-34.9c-.9 0-1.8.2-2.7.5-2.5 1-4.3 3.2-5 5.9-.8.1-1.6.3-2.3.6-1.2.5-3.1 2-3.1 2l.2.4s-.6.6-1.2 1.4c-.4.6-.8 1.5-.8 1.5s0-.1-.3-.3c-.4-.3-2-1-3.2-1-.9 0-1.9.2-2.9.6-1.9.8-4.5 2.9-6.2 5.3-.9-.5-2-.8-3.1-.8-1 0-2 .2-3.1.7-1.6.7-3.2 1.8-4.6 3.3-.4-.1-.9-.2-1.4-.2-.9 0-1.9.2-3 .6-3 1.3-5.1 3.7-6.6 5.8-.3.4-.5.8-.8 1.1-1.3-.8-2.8-1.3-4.5-1.3-1.4 0-2.9.3-4.5 1-2.9 1.5-5.3 3.7-7.3 6.4.3-.8.4-1.7.4-2.6v-.2c-.1-3.7-2.9-6.6-6.5-6.6-1 0-1.9.2-2.9.6-3 1.2-5.1 4.2-5.6 7.4l-.9-.3c-.5-.1-1.1-.2-1.6-.2-1.1 0-2.2.2-3.3.7-3.4 1.4-5.8 4.6-6 8.1l-.1 1.7c-.4.3-.8.7-1.2 1.2-.3 0-.7-.1-1-.1-1.1 0-2.2.2-3.3.7-.3.1-.7.3-1 .5-.5-3.1-.8-6.3-.8-9.5 0-31 25.2-56.2 56.2-56.2 17.8 0 33.6 8.3 43.9 21.2.2.1.1.1.1.1zm-43.9 115c-26.7 0-50.3-13.1-64.9-33.2 1.2 0 2.4-.3 3.7-.8 2.1-.9 3.8-2.4 5.1-4.1.7.2 1.4.3 2.1.3 1.2 0 2.4-.3 3.6-.8 2.1-.9 3.9-2.5 5.4-4.1.4.1.9.2 1.4.2 10.6 12.3 26.2 20.1 43.7 20.1 31.8 0 57.7-25.9 57.7-57.7 0-1.3-.1-2.6-.1-3.8 1.9-1.1 3.4-2.6 4.7-4.1.8.3 1.7.4 2.6.4 1.2 0 2.5-.3 3.8-.8 2-.9 3.7-2.3 5.1-4 .7.2 1.4.3 2.1.3 1 0 2.1-.2 3.2-.6.7 4.1 1 8.4 1 12.7-.1 44.1-36 80-80.2 80z"/>
  <path fill="#FFF" d="M20.8 140.6c-.4 0-.9-.1-1.3-.1-1.4-.3-2.3-1.6-2.2-3.1l2.2-29-.9.3c-1.8.6-3.4 1.2-4.8 1.7-2.1.9-3.2 1.7-3.7 2.7-.4.8-1 1.3-1.8 1.6-.3.1-.5.1-.8.1-.6 0-1.1-.2-1.6-.5-1.6-1-2.6-2.6-2.8-4.4-.5-4.2 1.7-8 5.7-9.7 3.1-1.3 6-1.6 8.9-2 2.8-.3 5.4-.7 8.1-1.8.4-.2.6-.3.7-.3.5-.9 1.5-1.5 2.6-1.5.2 0 .4 0 .5.1 1.7.3 2.9 1.7 3.1 3.5v1l.7-2c.7-2.2 2-4.9 5.1-6.2.9-.4 1.9-.6 2.8-.6.4 0 .9.1 1.3.2 1.4.3 2.3 1.6 2.2 3.1L43.7 108c1.8-5.1 5.1-9.6 9.5-11.4 1.5-.6 2.9-1 4.2-1h.4c.8-.9 1.8-1.6 2.9-2 .9-.4 1.8-.6 2.7-.6.5 0 .9.1 1.3.2.1 0 .2.1.3.1.5-.8 1.1-1.5 2-2l.2-2.4c.2-3.1 2.2-5.7 5.1-6.9.9-.4 1.8-.6 2.7-.6.4 0 .9.1 1.3.1 1.4.3 2.3 1.6 2.2 3.1l-.1 1.8 2-.8-.1-.1c-1-1-1.5-2.4-1.4-3.9-.1-3 1.9-6.1 4.8-7.2.8-.3 1.5-.5 2.3-.5 2.8 0 4.9 2.2 5 5.1 0 2.1-.9 4.1-2.3 5.6l.3.3c.8.9 1.2 2.1 1.1 3.7 1.8-5.2 5.2-9.7 9.7-11.6 1.5-.6 2.8-.9 4-.9 1.8 0 3.4.7 4.8 2 .5-.8 1.1-1.6 1.6-2.4 1.4-1.9 3.2-4.1 5.9-5.3.9-.4 1.6-.5 2.4-.5.6 0 1.3.1 1.8.4 1.5-1.6 3.1-2.9 4.8-3.6.9-.4 1.7-.5 2.5-.5 1.3 0 2.6.5 3.5 1.4 1.3-2.6 4.4-5.3 6.4-6.1.8-.4 1.6-.5 2.4-.5 1.2 0 2.2.4 3 1.3.4.5.7 1 .9 1.6v-.2c.2-3.7 2.8-6 5.2-7 .9-.4 1.9-.6 2.7-.6h.2c.3-2.7 2-5 4.4-6 .7-.3 1.4-.4 2.1-.4 1.5 0 3.3.7 4.6 2.3l1.2-1.2c-.1-.1-.2-.2-.4-.3-1-1-1.5-2.4-1.4-3.9-.1-2.9 1.9-6.1 4.8-7.2.8-.3 1.5-.5 2.3-.5 2.8 0 4.9 2.2 5 5.1 0 2-.9 4-2.2 5.5l.2.2c.9.9 1.2 2.2 1.1 3.8v.2c1.8-5.2 5.1-9.8 9.5-11.6 1-.4 1.9-.7 2.8-.8v-.5c-.9-.6-1.8-1.5-2-3.2-.4-3.1 4.3-7.5 7-8.6.8-.4 1.6-.5 2.4-.5 1.2 0 2.2.4 3 1.3.9.9 1.2 2.2 1.1 3.8l-.7 10.1c1.7-4.8 4.8-9.2 9.4-11.2 1.4-.6 2.7-.9 3.8-.9 3.1 0 5.4 2.1 5.8 5.5.4 3.5-.5 6.8-3.4 11h.2c1.9 0 3.5 1.4 3.7 3.4.5 4.3-4.4 9.8-9.1 11.7-1.5.6-3 1-4.3 1-1.1 0-2.2-.2-3.2-.7-1.7 2.3-4 4.5-6.2 5.5-1 .4-2.1.7-3 .7-.5 0-1.5-.1-2.5-.6-1.3 1.9-3.1 3.6-5.2 4.5-1.1.5-2.2.7-3.2.7-1.1 0-2.1-.3-3-.8-1.6 2.1-3.8 4.3-6.4 5.4-1.1.4-2.1.7-3.1.7-1.6 0-3-.6-4-1.7-.7-.7-1.2-1.7-1.4-2.8-2.1 5.3-5.1 9.5-8.2 10.8-.6.2-1.2.4-1.8.4-1.6 0-2.8-.8-3.8-1.9-1.4 2.8-3.1 5.2-5.4 6.2-.7.3-1.4.4-2 .4-1.4 0-2.7-.6-3.8-1.7-1.4 3-4.2 5.4-6.4 6.4-1.1.5-2.2.7-3.3.7-1.6 0-3.1-.6-4.1-1.7-.5-.6-.9-1.2-1.2-2l-.2 2c-.2 3.1-2.2 5.7-5.1 6.9-.9.4-1.8.6-2.7.6-.5 0-.9-.1-1.3-.2-1.4-.3-2.3-1.6-2.2-3.1l.2-2.2c-2.1 5.2-5.9 9.9-9.9 11.6-1.3.5-2.6.8-3.7.8-1.2 0-2.3-.3-3.2-.8-1.6 2.2-3.9 4.5-6.6 5.7-1.1.4-2.1.7-3.1.7-1.1 0-2.2-.3-3-.9-1.5 2.4-3.8 4.4-5.8 5.2-1 .4-2.1.7-3.1.7-.9 0-1.7-.2-2.5-.5-1.4 1.7-3.3 3.6-5.5 4.5-1.1.4-2.1.7-3.1.7-.5 0-1.5-.1-2.6-.6-1.3 1.9-3.1 3.6-5.2 4.5-1.1.5-2.2.7-3.2.7-1.1 0-2.2-.3-3.1-.8-1.8 2.3-3.7 4.3-6 5.3-1.2.5-2.4.8-3.4.8-1.6 0-3-.6-4-1.7-1.1-1.2-1.7-2.9-1.7-5.2l-2.6 7c-.8 2.3-2 4.9-5.1 6.2-1.2-.2-2.2 0-3.1 0zm34.3-33.8c-1.4 2.4-1.9 6-1.7 8.9.4-.5.8-1.1 1.2-1.8l.5-7.1zm22-2.4c.3-.1.7-.1 1-.1l.6-9-1 .4-.6 8.7zm-46-.5l.6-1.8-.6.6v1.2zm69.1-12.5c-.3 1.4-.4 2.9-.2 4.3.1.6.2 1 .2 1.3.8-1 1.6-2.9 1.7-4.8-.1 0-.2 0-.3-.1-.6 0-1.1-.3-1.4-.7zm32.3-10.2c.2 0 .4-.1.6-.1-.1-.7-.2-1.4-.3-2.2v-.3l-.3 2.6zM155 61.4c-.2 2.7-.3 5.4-.1 7.8.6-2 .8-4.1.6-5.8-.2-.9-.4-1.6-.5-2zm30-9.1c-1.5 2.4-1.9 6.1-1.8 9 .4-.5.8-1.1 1.2-1.8l.6-7.2z"/>
  <path fill="#B3111A" d="M81.9 81.6c0-1.9 1.2-3.9 3-4.6 1.7-.7 3.2.2 3.2 2 0 1.9-1.3 3.9-3.1 4.6-1.7.8-3.2-.1-3.1-2m52.5 3.2c.4 3.2-3 6.9-5.4 7.9-2.2.9-5.5 1.1-5-4.7l.7-9.9c.2-2.1-.6-2.6-1.5-2.2-1.2.5-2.8 2.4-3.6 4L118.5 94c-.2 2.3-1.8 3.8-3.4 4.4-.8.3-1.6.4-2.2.3l1.5-19.1c.1-.8-.2-1.1-.6-1-.2.1-.5.4-.8.9v.1c-1 1.5-2.5 4.4-4.1 6.3.1.2.1.3.1.5.9 7-4.5 16.5-9.8 18.7-3.1 1.3-5.2.3-6.4-1.8-1.8 3.2-4.4 6.3-7.2 7.5-2.2.9-4.9.7-4.6-3.8l.9-15c.1-.9-.4-1-1.1-.8l-5.9 2.5-1 13.9c-.2 2.5.5 3.3 1.4 2.9.8-.3 1.7-1.3 2.2-3.2.8-.4 1.4-.1 1.5.7.4 3.2-3 6.9-5.4 7.9-1.7.7-4 .9-4.8-1.7-1.8 2.8-4.2 5.5-6.3 6.4-2.1.9-4.3.7-4.7-2.9-1.5 3.5-3.6 6.4-6.1 7.4-3 1.2-4.7-.1-5.6-2.1-2.2 3.3-4.4 6.2-6.8 7.2-2.7 1.1-5.5.9-5-4.9l1.4-19-9.7 26.4c-.9 2.5-1.8 3.8-3.4 4.5-.8.3-1.6.4-2.2.3l2.5-33.5c-3.9 1.5-7.3 2.4-10.1 3.6-2.5 1-4.3 2.2-5.2 4.2-.9-.6-1.4-1.4-1.5-2.3-.3-2.5.7-5.3 3.9-6.6 5.5-2.3 11.1-1.3 17-3.8 1.2-.5 1.8-.9 2.1-1.6.5.1.7.5.8.9.1.9-.3 2.1-1.5 2.5l-1.8 23.6L36.3 98c.8-2.5 1.8-3.8 3.4-4.5.8-.3 1.6-.4 2.2-.3L39.7 122c-.2 2.9.7 3.3 1.9 2.8s2.9-2.3 3.9-3.6c-.1-.5-.2-.9-.2-1.4-1-8 3-18 9.2-20.6 2-.8 3.5-.9 4.7-.4.6-1.2 1.7-2.1 2.8-2.6.8-.3 1.6-.4 2.2-.3L63 112.3c-.2 2.8.6 3.3 1.7 2.8 1.4-.6 2.9-2.1 3.9-3.5v-.7l1.1-15-2.2.9c-.4-1.4.2-2.9 1.5-3.4l.9-.4.3-4.1c.2-2.3 1.8-3.8 3.4-4.4.8-.3 1.6-.4 2.2-.3l-.5 6.5 9.6-4c1.6-.7 2.6-.3 2.4 1.6l-1 14.1c-.2 2.8.6 3.3 1.7 2.8 1.5-.6 3-2.2 4-3.7-.2-.6-.3-1.2-.4-1.8-.9-6.9 2.7-17.5 9.4-20.3 2.2-.9 4.1-1 5.6.5 0 1.1-.6 1.9-1.3 1.9-.9 0-1.8.2-2.9.7-4 1.7-5.9 8.9-5.3 13.4.5 4 2 5 3.6 4.4 2.3-.9 4.7-5.5 4.2-9.6-.1-.6-.2-1.2-.5-1.8-.8.3-1.6.4-2.1.3-1.2-2.1-.5-4.8 2-5.9 1.5-.6 2.9-.4 3.8.6 1.6-1.9 3-4.5 4.7-6.9 1.3-1.9 2.8-3.5 4.7-4.3 1.6-.7 2.6-.3 2.4 1.6l-.2 2.2c1.5-3.5 4.1-6.5 6.7-7.6 2.3-1 4.2.3 3.8 5.5l-.7 9.8c-.2 2.5.5 3.3 1.4 2.9.8-.3 1.7-1.3 2.2-3.2.6-.1 1.2.2 1.3.9m-76 16.6c-.8 0-1.5.2-2.1.5-5.3 2.2-6.4 10.3-5.7 15.2.3 2.3 1.4 2.9 2.8 2.3 1.4-.6 3.1-2.6 4.1-4.7l.9-13.3zm98.9-48.6c-1.5.6-2.7 2.3-2.5 4.8 2 .1 3.2 2.4 3.6 5.5.5 4.3-1.1 10-4.1 14.2-1.2-1.7-1.9-3.8-2.2-6.3-.4-3.4-.2-7.5.2-11.9-.5-.2-1.4 0-2.2.3-1.6.7-3.2 2.2-3.4 4.4-.4 8.8-1.1 14.2-3.5 18.1-1.1-1.4-1.8-3.7-2.1-6.4-.4-3-.3-6.5-.1-9.7.1-1.9-.8-2.3-2.4-1.6-2.4 1-5.3 4.5-5.2 5.6 0 .4.1.8.8 1.1.2-.4.5-.7.8-.9.3-.1.6 0 .6.5-.3 2.1-.3 5.2 0 8.2.7 5.3 2.5 10.3 5.5 9.1 2.3-1 4.8-5.5 6.5-12 .8 4.4 2.2 8.4 4.5 7.4 4.8-2 10.6-16.2 9.3-26.7-.3-3.5-2.4-4.4-4.1-3.7m11.1-4.1c1.7-.7 3-2.7 3.1-4.6 0-1.9-1.5-2.7-3.2-2-1.7.7-3 2.7-3 4.6-.1 1.9 1.4 2.8 3.1 2M206 60.5c-3 1.3-5.5 1-6.9-1.5-1.8 3.1-4.6 6.3-6.8 7.3-2.1.9-4.2.7-4.6-2.9-1.5 3.5-3.6 6.4-6.2 7.4-2.9 1.2-4.6-.1-5.5-2-1.8 3.1-4.3 6.2-7.1 7.3-2.2.9-4.9.7-4.6-3.8l1-13.8c0-.8-.2-1.1-.6-1-.2.1-.5.4-.8.9-.6-.1-1.1-1.4-.3-2.5 1.4-1.9 2.8-3.5 4.7-4.3 1.6-.7 2.6-.3 2.4 1.6l-1.1 14.3c-.2 2.8.6 3.3 1.7 2.8 1.4-.6 3-2.2 4-3.7-.1-.5-.2-1-.3-1.4-1-8 3-18 9.2-20.6 1.8-.8 3.2-.9 4.4-.5l.4-5.8c.1-1.3-.8-1.3-1.4-.1-.7-.3-.8-.8-.8-1.1-.1-1 2.8-4.6 5.2-5.6 1.6-.7 2.6-.3 2.4 1.6l-1.8 24.7c-.2 2.8.6 3.3 1.7 2.8 1.5-.6 3-2.2 4-3.7-.2-.6-.3-1.2-.4-1.9-.7-5.9 1.9-17 9.2-20.1 4-1.7 5.3.2 5.6 2.3.5 3.9-1.1 7.8-9.1 16.3.7 2.1 2.4 2.6 4.3 1.8s3.2-2.4 3.8-4.3c.8-.4 1.4-.1 1.5.7.4 2.6-3.4 7.1-7.2 8.8M188.4 47c-.8 0-1.5.2-2.2.5-5.3 2.2-6.4 10.3-5.7 15.2.3 2.3 1.4 2.9 2.8 2.3 1.4-.6 3.1-2.6 4.1-4.7l1-13.3zm14.9 4.8c3.9-4.6 6.5-9 6.1-12-.1-1.1-.8-1.6-1.5-1.2-4.3 1.8-4.8 9.9-4.6 13.2M78.4 139.1c-1.8 2.3-5.1 2.7-7.5.8l-1.8-1.4-3 3.8-2.8-2.2 9.5-12.1 4.6 3.6c2.4 1.9 2.8 5.2 1 7.5zm-2.7-2.2c.7-.9.6-2-.2-2.7l-1.8-1.4-2.4 3.1 1.8 1.4c.7.7 1.9.5 2.6-.4zm8 13.6l-5.1-2.6-1.8 1.8-3.4-1.7L85 136.6l4 2-2.3 16.1-3.4-1.7.4-2.5zm.6-3.4l.9-5.9-4.2 4.2 3.3 1.7zm13.9-5.1l-4.5 14.7-3.4-1 4.5-14.7 3.4 1zm14.3 2.4l-2 15.3-2.6-.3-4.8-9.1-1.1 8.3-3.5-.5 2-15.3 2.6.3 4.8 9.1 1.1-8.3 3.5.5zm12.8 2.5l-3.9.3.9 12-3.5.3-.9-12-3.9.3-.3-3.4 11.4-.9.2 3.4zm4.5-4.7l3.4 15-3.4.8-3.4-15 3.4-.8zm13.6-5l5.9 14.2-2.4 1-8.7-5.4 3.2 7.7-3.2 1.3-5.9-14.2 2.4-1 8.7 5.4-3.2-7.7 3.2-1.3zm18.9-3.5c2.8 3.8 1.9 8-1.5 10.6-3.9 2.9-8.8 2.2-11.4-1.4-2.7-3.6-2-8.5 1.6-11.3 2.4-1.8 5.2-2.1 7.5-1.2l-1.4 3.2c-1.1-.4-2.7-.2-4.1.8-2.1 1.6-2.5 4.3-.8 6.4 1.6 2.1 4.2 2.5 6.6.7 1.6-1.2 2.2-2.8 1.7-4.3l-3.3 2.5-1.9-2.5 6.2-4.6.8 1.1zm-110.9-61l-.7 5.3 2.2 1-.4 3.6L38.8 76l.5-4.2 14.9-3.1-.4 3.6-2.4.4zm-3.2.6l-5.4 1 5 2.3.4-3.3zm1.8-6.4l-9.2-3.2 1.1-3.1 8.9 3.1c1 .4 2.1.2 2.6-1.5.6-1.6-.1-2.4-1.2-2.8l-8.9-3.1 1.1-3.1 9.2 3.2c2.9 1 3.9 3.9 2.8 6.8-1 3.1-3.5 4.7-6.4 3.7zm4.1-24.7l-1.9 3.2 9.7 5.6-1.6 2.8-9.7-5.6-1.9 3.2-2.7-1.6 5.4-9.2 2.7 1.6zm3.9 1c-3.2-2.8-3.4-7.5-.6-10.5 2.7-3.1 7.4-3.4 10.5-.6 3.2 2.8 3.4 7.5.6 10.5-2.7 3-7.3 3.4-10.5.6zm7.8-8.7c-1.9-1.7-4.4-1.5-6 .3-1.6 1.7-1.5 4.3.4 6 1.9 1.7 4.4 1.5 6-.3 1.5-1.8 1.5-4.3-.4-6zm11.8-5.8l-2.5 1.8.4 1.3-1.7 1.2-2.5-8.3 1.9-1.4 7 5.1-1.7 1.2-.9-.9zm-1.5-1.1l-2.5-1.9 1 3 1.5-1.1zm6.7-9.9l3.9 7.2-1.2.7-4.9-2.4 2.1 3.9-1.7.9-3.9-7.2 1.2-.7 4.9 2.4-2.1-3.9 1.7-.9zm10.7.1c.8 2.2-.1 4.5-2.3 5.3l-3.1 1.2-2.9-7.7 3.1-1.2c2.1-.8 4.3.2 5.2 2.4zm-1.7.7c-.5-1.3-1.7-1.8-2.9-1.4l-1.3.5 1.6 4.3 1.3-.5c1.3-.5 1.8-1.6 1.3-2.9zm15.9-7.9l-3.6.6 1.8 11.1-3.2.5-1.8-11.1-3.6.6-.5-3.1 10.5-1.7.4 3.1zm7.9 6.4H114l-.1 4.7-3.3-.1.4-14.4 5.7.1c2.7.1 4.9 2.3 4.8 5 0 1.8-1.1 3.3-2.7 4.1l2.9 5.3-3.5-.1-2.6-4.6zm-1.5-2.9l2.5.1c.9 0 1.7-.8 1.7-1.8s-.7-1.9-1.6-1.9l-2.5-.1-.1 3.7zm9.7 3.4L126 8l3.2.7-2.1 9.2c-.2 1.1.1 2.1 1.8 2.5 1.7.4 2.4-.4 2.6-1.5l2.1-9.2 3.2.7-2.2 9.5c-.7 3-3.4 4.3-6.5 3.6-3.1-.7-5-3-4.3-6zm14.2.8c1.8-3.8 6.1-5.4 10-3.5 2.3 1.1 3.9 3.3 4.1 5.7l-3.3.3c-.1-1.3-.9-2.4-2.2-3-2.3-1.1-4.5-.3-5.6 2-1.1 2.3-.4 4.6 1.9 5.7 1.3.6 2.7.6 3.8-.2l1.8 2.7c-2 1.3-4.6 1.5-7 .3-3.9-1.9-5.4-6.2-3.5-10zm16.3 17.9l.4-8.1-4.1 5.3-2.6-2 8.8-11.4 2.6 2-3.8 4.9 7.3-2.2 3 2.3-8.1 2.6-.5 8.9-3-2.3z"/>
</svg>
